<?xml version="1.0" encoding="UTF-8" standalone="no"?>
<!-- Created with Inkscape (http://www.inkscape.org/) -->

<svg
   xmlns:dc="http://purl.org/dc/elements/1.1/"
   xmlns:cc="http://creativecommons.org/ns#"
   xmlns:rdf="http://www.w3.org/1999/02/22-rdf-syntax-ns#"
   xmlns:svg="http://www.w3.org/2000/svg"
   xmlns="http://www.w3.org/2000/svg"
   xmlns:sodipodi="http://sodipodi.sourceforge.net/DTD/sodipodi-0.dtd"
   xmlns:inkscape="http://www.inkscape.org/namespaces/inkscape"
   width="28.167105mm"
   height="27.919159mm"
   viewBox="0 0 99.804702 98.926154"
   id="svg2"
   version="1.1"
   inkscape:version="0.91 r13725"
   sodipodi:docname="mud.svg">
  <defs
     id="defs4" />
  <sodipodi:namedview
     id="base"
     pagecolor="#ffffff"
     bordercolor="#666666"
     borderopacity="1.0"
     inkscape:pageopacity="0.0"
     inkscape:pageshadow="2"
     inkscape:zoom="1"
     inkscape:cx="-355.7664"
     inkscape:cy="225.93322"
     inkscape:document-units="px"
     inkscape:current-layer="g4147"
     showgrid="false"
     fit-margin-top="0"
     fit-margin-left="0"
     fit-margin-right="0"
     fit-margin-bottom="0"
     inkscape:window-width="1920"
     inkscape:window-height="1057"
     inkscape:window-x="-8"
     inkscape:window-y="-8"
     inkscape:window-maximized="1" />
  <metadata
     id="metadata7">
    <rdf:RDF>
      <cc:Work
         rdf:about="">
        <dc:format>image/svg+xml</dc:format>
        <dc:type
           rdf:resource="http://purl.org/dc/dcmitype/StillImage" />
        <dc:title></dc:title>
      </cc:Work>
    </rdf:RDF>
  </metadata>
  <g
     inkscape:label="Layer 1"
     inkscape:groupmode="layer"
     id="layer1"
     transform="translate(-379.33206,-540.8421)">
    <g
       id="g4147"
       transform="translate(-24,-154)">
      <g
         id="g4200"
         transform="translate(115,23)"
         style="fill:#795548;fill-opacity:1">
        <path
           style="fill-opacity:1;fill:#795548"
           d="m 329.07071,770.15899 c 0.72188,-0.28888 1.58438,-0.25335 1.91667,0.0789 0.33229,0.33229 -0.25834,0.56864 -1.3125,0.52522 -1.16495,-0.048 -1.4019,-0.28495 -0.60417,-0.60417 z m 5,0 c 0.72188,-0.28888 1.58438,-0.25335 1.91667,0.0789 0.33229,0.33229 -0.25834,0.56864 -1.3125,0.52522 -1.16495,-0.048 -1.4019,-0.28495 -0.60417,-0.60417 z m -17.73355,-12.90022 c 0.048,-1.16495 0.28494,-1.4019 0.60416,-0.60417 0.28888,0.72187 0.25335,1.58437 -0.079,1.91667 -0.33229,0.33229 -0.56864,-0.25834 -0.52522,-1.3125 z m 31,0 c 0.048,-1.16495 0.28494,-1.4019 0.60416,-0.60417 0.28888,0.72187 0.25335,1.58437 -0.079,1.91667 -0.33229,0.33229 -0.56864,-0.25834 -0.52522,-1.3125 z m 21.73355,-21.09978 c 0.72188,-0.28888 1.58437,-0.25335 1.91667,0.0789 0.33229,0.33229 -0.25834,0.56864 -1.3125,0.52522 -1.16495,-0.048 -1.4019,-0.28495 -0.60417,-0.60417 z m 5,0 c 0.72188,-0.28888 1.58437,-0.25335 1.91667,0.0789 0.33229,0.33229 -0.25834,0.56864 -1.3125,0.52522 -1.16495,-0.048 -1.4019,-0.28495 -0.60417,-0.60417 z m -17.73355,-12.90022 c 0.048,-1.16495 0.28494,-1.4019 0.60416,-0.60417 0.28888,0.72187 0.25335,1.58437 -0.079,1.91667 -0.33229,0.33229 -0.56864,-0.25834 -0.52522,-1.3125 z m 31,0 c 0.048,-1.16495 0.28494,-1.4019 0.60416,-0.60417 0.28888,0.72187 0.25335,1.58437 -0.079,1.91667 -0.33229,0.33229 -0.56864,-0.25834 -0.52522,-1.3125 z m -86.26645,-5.09978 c 0.72188,-0.28888 1.58438,-0.25335 1.91667,0.0789 0.33229,0.33229 -0.25834,0.56864 -1.3125,0.52522 -1.16495,-0.048 -1.4019,-0.28495 -0.60417,-0.60417 z m 5,0 c 0.72188,-0.28888 1.58438,-0.25335 1.91667,0.0789 0.33229,0.33229 -0.25834,0.56864 -1.3125,0.52522 -1.16495,-0.048 -1.4019,-0.28495 -0.60417,-0.60417 z m -17.73355,-12.90022 c 0.048,-1.16495 0.28494,-1.4019 0.60416,-0.60417 0.28887,0.72187 0.25335,1.58437 -0.0789,1.91667 -0.3323,0.33229 -0.56864,-0.25834 -0.52522,-1.3125 z m 31,0 c 0.048,-1.16495 0.28494,-1.4019 0.60416,-0.60417 0.28888,0.72187 0.25335,1.58437 -0.079,1.91667 -0.33229,0.33229 -0.56864,-0.25834 -0.52522,-1.3125 z"
           id="path4204"
           inkscape:connector-curvature="0" />
        <path
           style="fill-opacity:1;fill:#795548"
           d="m 328.75821,769.87209 c -11.38236,-2.60323 -14.84548,-13.26654 -8.63228,-26.57975 3.57365,-7.65739 10.92956,-19.45024 12.13228,-19.45024 1.20272,0 8.55863,11.79285 12.13228,19.45024 3.76732,8.07234 4.17535,14.5213 1.23482,19.51631 -3.25087,5.52217 -10.44092,8.53316 -16.8671,7.06344 z m 40,-34 c -11.37137,-2.60072 -14.83683,-13.248 -8.65113,-26.57975 3.09515,-6.67084 11.07882,-19.45024 12.15113,-19.45024 1.07231,0 9.05598,12.7794 12.15113,19.45024 3.74672,8.07513 4.14913,14.53381 1.21597,19.51631 -3.25087,5.52217 -10.44092,8.53316 -16.8671,7.06344 z m -68,-18 c -11.38236,-2.60323 -14.84548,-13.26654 -8.63228,-26.57975 3.57365,-7.65739 10.92956,-19.45024 12.13228,-19.45024 1.20272,0 8.55863,11.79285 12.13228,19.45024 3.76732,8.07234 4.17535,14.5213 1.23482,19.51631 -3.25087,5.52217 -10.44092,8.53315 -16.8671,7.06344 z"
           id="path4202"
           inkscape:connector-curvature="0" />
      </g>
    </g>
  </g>
</svg>
