<?xml version="1.0" encoding="UTF-8" standalone="no"?>
<!-- Created with Inkscape (http://www.inkscape.org/) -->

<svg
   xmlns:dc="http://purl.org/dc/elements/1.1/"
   xmlns:cc="http://creativecommons.org/ns#"
   xmlns:rdf="http://www.w3.org/1999/02/22-rdf-syntax-ns#"
   xmlns:svg="http://www.w3.org/2000/svg"
   xmlns="http://www.w3.org/2000/svg"
   xmlns:sodipodi="http://sodipodi.sourceforge.net/DTD/sodipodi-0.dtd"
   xmlns:inkscape="http://www.inkscape.org/namespaces/inkscape"
   width="30.706997mm"
   height="28.224903mm"
   viewBox="0 0 108.80432 100.0095"
   id="svg2"
   version="1.1"
   inkscape:version="0.91 r13725"
   sodipodi:docname="mudhut.svg">
  <defs
     id="defs4" />
  <sodipodi:namedview
     id="base"
     pagecolor="#ffffff"
     bordercolor="#666666"
     borderopacity="1.0"
     inkscape:pageopacity="0.0"
     inkscape:pageshadow="2"
     inkscape:zoom="1.4"
     inkscape:cx="-126.30866"
     inkscape:cy="31.58487"
     inkscape:document-units="px"
     inkscape:current-layer="layer1"
     showgrid="false"
     fit-margin-top="0"
     fit-margin-left="0"
     fit-margin-right="0"
     fit-margin-bottom="0"
     inkscape:window-width="1920"
     inkscape:window-height="1057"
     inkscape:window-x="-8"
     inkscape:window-y="-8"
     inkscape:window-maximized="1" />
  <metadata
     id="metadata7">
    <rdf:RDF>
      <cc:Work
         rdf:about="">
        <dc:format>image/svg+xml</dc:format>
        <dc:type
           rdf:resource="http://purl.org/dc/dcmitype/StillImage" />
        <dc:title></dc:title>
      </cc:Work>
    </rdf:RDF>
  </metadata>
  <g
     inkscape:label="Layer 1"
     inkscape:groupmode="layer"
     id="layer1"
     transform="translate(-517.02855,-388.78126)">
    <path
       style="fill:#795548;fill-opacity:1"
       d="m 528.92857,468.79076 c 0,-19.12138 0.10982,-20.00597 2.5,-20.13587 1.375,-0.0747 7.5625,-0.13587 13.75,-0.13587 6.1875,0 12.65625,0.0611 14.375,0.13587 l 3.125,0.13587 0,20 0,20 -16.875,0 -16.875,0 0,-20 z m 51.25,0 0,-20 3.125,-0.13587 c 1.71875,-0.0747 8.1875,-0.13587 14.375,-0.13587 6.1875,0 12.9375,0.0611 15,0.13587 l 3.75,0.13587 0,20 0,20 -18.125,0 -18.125,0 0,-20 z m -57.39418,-27.18944 c -4.27531,-2.1887 -6.84868,-6.36222 -5.30373,-8.60165 0.4526,-0.65606 4.65226,-3.84406 9.33257,-7.08445 l 8.50965,-5.89161 3.99035,3.03114 c 3.94954,3.00015 4.27794,3.03115 32.11534,3.03115 27.61261,0 28.19565,-0.0537 32.00314,-2.94556 l 3.87813,-2.94556 8.62187,5.75059 c 4.74202,3.16284 8.99217,6.31232 9.44477,6.99887 1.5625,2.37011 -1.03668,6.4788 -5.51379,8.716 -4.09183,2.04467 -4.88971,2.07817 -8.9629,0.37628 -3.93608,-1.6446 -4.99484,-1.64941 -8.84622,-0.0402 -3.83889,1.60399 -4.91111,1.60399 -8.75,0 -3.83889,-1.60399 -4.91111,-1.60399 -8.75,0 -3.83889,1.60399 -4.91111,1.60399 -8.75,0 -3.83889,-1.60399 -4.91111,-1.60399 -8.75,0 -3.83889,1.60399 -4.91111,1.60399 -8.75,0 -3.83889,-1.60399 -4.91111,-1.60399 -8.75,0 -3.83889,1.60399 -4.91111,1.60399 -8.75,0 -3.82579,-1.59852 -4.91917,-1.60062 -8.70985,-0.0168 -5.25394,2.19523 -4.19869,2.2381 -9.30933,-0.37823 z M 545.2032,419.6852 c -3.34508,-1.69253 -6.40771,-6.64364 -5.49667,-8.88602 0.30914,-0.76088 7.57306,-6.02618 16.14205,-11.70067 l 15.57999,-10.31725 15.57999,10.31725 c 8.56899,5.67449 15.83291,10.93979 16.14205,11.70067 0.95473,2.34992 -2.24593,7.28302 -5.84499,9.00873 -2.88219,1.38198 -4.01512,1.34764 -7.15092,-0.2167 -3.30038,-1.64645 -4.15461,-1.64509 -7.47613,0.0119 -3.32954,1.66099 -4.17046,1.66099 -7.5,0 -3.32954,-1.661 -4.17046,-1.661 -7.5,0 -3.33191,1.66217 -4.17047,1.66099 -7.5213,-0.0106 -3.28666,-1.6396 -4.21031,-1.65236 -7.1875,-0.0992 -4.11755,2.14799 -3.9108,2.14288 -7.76657,0.19196 z"
       id="path4169"
       inkscape:connector-curvature="0" />
    <path
       style="fill:#000000"
       d=""
       id="path4149"
       inkscape:connector-curvature="0" />
    <path
       style="fill:#000000"
       d=""
       id="path4147"
       inkscape:connector-curvature="0" />
  </g>
</svg>
