<?xml version="1.0" encoding="UTF-8" standalone="no"?>
<!-- Created with Inkscape (http://www.inkscape.org/) -->

<svg
   xmlns:dc="http://purl.org/dc/elements/1.1/"
   xmlns:cc="http://creativecommons.org/ns#"
   xmlns:rdf="http://www.w3.org/1999/02/22-rdf-syntax-ns#"
   xmlns:svg="http://www.w3.org/2000/svg"
   xmlns="http://www.w3.org/2000/svg"
   xmlns:sodipodi="http://sodipodi.sourceforge.net/DTD/sodipodi-0.dtd"
   xmlns:inkscape="http://www.inkscape.org/namespaces/inkscape"
   width="26.866007mm"
   height="27.915478mm"
   viewBox="0 0 95.194512 98.91311"
   id="svg2"
   version="1.1"
   inkscape:version="0.91 r13725"
   sodipodi:docname="mudman.svg">
  <defs
     id="defs4" />
  <sodipodi:namedview
     id="base"
     pagecolor="#ffffff"
     bordercolor="#666666"
     borderopacity="1.0"
     inkscape:pageopacity="0.0"
     inkscape:pageshadow="2"
     inkscape:zoom="1"
     inkscape:cx="-327.69256"
     inkscape:cy="37.007041"
     inkscape:document-units="px"
     inkscape:current-layer="g4147"
     showgrid="false"
     fit-margin-top="0"
     fit-margin-left="0"
     fit-margin-right="0"
     fit-margin-bottom="0"
     inkscape:window-width="1920"
     inkscape:window-height="1057"
     inkscape:window-x="-8"
     inkscape:window-y="-8"
     inkscape:window-maximized="1" />
  <metadata
     id="metadata7">
    <rdf:RDF>
      <cc:Work
         rdf:about="">
        <dc:format>image/svg+xml</dc:format>
        <dc:type
           rdf:resource="http://purl.org/dc/dcmitype/StillImage" />
        <dc:title></dc:title>
      </cc:Work>
    </rdf:RDF>
  </metadata>
  <g
     inkscape:label="Layer 1"
     inkscape:groupmode="layer"
     id="layer1"
     transform="translate(-351.25821,-351.92897)">
    <g
       id="g4147"
       transform="translate(-24,-154)">
      <path
         style="fill-opacity:1"
         d="m 451.51946,593.96939 c -285.01297,408.26191 -142.50649,204.13094 0,0 z"
         id="path4151"
         inkscape:connector-curvature="0"
         sodipodi:nodetypes="cc" />
      <path
         style="fill:#795548;fill-opacity:1"
         d="m 400.21418,604.24934 c -1.17865,-0.48749 -2.86615,-1.91878 -3.75,-3.18065 -1.7771,-2.53716 0.19774,-15.25383 1.76962,-16.2253 0.55089,-0.34047 6.959,-1.19559 9.88283,2.72551 l 7.3812,3.09455 -3.03045,7.34283 c -2.34369,5.6788 -7.8992,8.04387 -12.2532,6.24306 z m 38.67302,-0.2851 c -1.3585,-0.70069 -3.51953,-2.8314 -4.80231,-4.73491 l -4.08231,-8.33593 7.54654,-5.28777 c 3.94236,-2.76236 8.86164,-0.69592 9.5523,-0.43089 0.7163,0.27487 3.75576,7.68978 3.75576,9.9575 0,6.93274 -6.43987,11.68437 -11.96998,8.832 z m -31.9274,-15.84271 c -4.61856,-1.57497 -8.86113,-2.20232 -9.12237,-2.46355 -0.26124,-0.26124 1.63009,-6.29944 3.89739,-12.34876 4.22198,-11.26458 5.27831,-18.92753 2.87236,-20.837 -0.6875,-0.54562 -3.05,-1.3032 -5.25,-1.6835 -2.2,-0.38029 -5.64891,-1.12092 -7.66425,-1.64584 l -9.53925,-1.9544 0.14279,-7.35954 c 0.0919,-4.73509 0.0755,-13.67631 15.79873,-8.28569 0,0 -0.97172,-0.1735 2.99727,0.44085 3.969,0.61434 7.34564,0.98769 7.50366,0.82968 0.15802,-0.15802 -0.44115,-2.03075 -1.33149,-4.16162 -3.15133,-7.54221 0.45018,-17.23931 7.8177,-21.04921 6.58286,-3.40412 16.23339,-1.42995 20.68697,4.23186 4.45531,5.66401 4.93819,11.78418 1.56097,19.78426 -0.6928,1.64112 -0.46765,1.81577 1.65426,1.2832 1.35091,-0.33905 4.94185,-0.9086 7.97986,-1.26566 l 10.39866,-2.2742 2.89252,8.61599 c 1.78667,5.32197 3.15508,8.8558 2.50347,9.28693 -0.55773,0.36901 -10.22006,2.3408 -13.83296,3.00675 -3.6129,0.66595 -7.13141,1.65663 -7.81891,2.20151 -2.37732,1.88415 -1.34017,9.51039 2.83735,20.86327 2.24805,6.1093 4.28486,13.63002 4.125,14.22388 -1.08554,4.03257 -5.40262,-0.50307 -9.91295,0.87912 l -8.2006,2.51308 -3.2994,-7.85372 c -3.08891,-7.35269 -4.70823,-9.55839 -4.86729,-6.62983 -0.0373,0.6875 -1.49985,4.23478 -3.25,7.88285 l -3.18211,6.63286 z m 19.39738,-24.90214 c 0,-3.33333 -0.16667,-3.5 -3.5,-3.5 -2.90098,0 -3.55632,0.39753 -3.82908,2.32273 -0.56628,3.9969 0.52391,5.3331 4.07221,4.99114 2.99569,-0.2887 3.25687,-0.59455 3.25687,-3.81387 z m 0,-14 c 0,-3.33333 -0.16667,-3.5 -3.5,-3.5 -2.90098,0 -3.55632,0.39753 -3.82908,2.32273 -0.56628,3.9969 0.52391,5.3331 4.07221,4.99114 2.99569,-0.2887 3.25687,-0.59455 3.25687,-3.81387 z m 1.56574,-17.03518 c 1.76518,-0.9447 2.91801,-4.6108 1.18426,-3.76607 -0.4125,0.20098 -1.9875,0.98572 -3.5,1.74385 -2.33665,1.17124 -3.16335,1.17124 -5.5,0 -1.5125,-0.75813 -3.0875,-1.54287 -3.5,-1.74385 -1.60208,-0.78057 -0.65068,2.75972 1,3.72115 2.28603,1.33149 7.86635,1.35579 10.31574,0.0449 z m -7.56574,-11.96482 c 0,-1.83273 -0.60174,-2.58545 -2.25447,-2.82014 -1.35228,-0.19202 -2.49559,0.3082 -2.85699,1.25 -0.99567,2.59467 0.39988,4.73919 2.85699,4.39028 1.65273,-0.23469 2.25447,-0.98741 2.25447,-2.82014 z m 10,0 c 0,-1.83273 -0.60174,-2.58545 -2.25447,-2.82014 -1.35228,-0.19202 -2.49559,0.3082 -2.85699,1.25 -0.99567,2.59467 0.39988,4.73919 2.85699,4.39028 1.65273,-0.23469 2.25447,-0.98741 2.25447,-2.82014 z m -50.75002,25.91989 c -0.96251,-0.56061 -2.45355,-2.37977 -3.31343,-4.04258 -3.1282,-6.04928 1.19859,-13.07731 8.05101,-13.07731 2.00518,0 7.68769,0.91691 7.89169,1.12091 0.77268,0.77269 -8.78834,17.07768 -9.80897,17.04868 -0.58866,-0.0167 -1.85779,-0.48909 -2.8203,-1.0497 z m 80.04734,-7.65422 c -1.4641,-4.80388 -2.49744,-8.89888 -2.29632,-9.1 0.20111,-0.20112 2.00626,-0.36567 4.01144,-0.36567 6.86431,0 11.17907,7.0283 8.04063,13.09737 -1.45598,2.81556 -4.88576,5.10263 -6.88267,5.10263 -0.45984,0 -1.40898,-3.93045 -2.87308,-8.73433 z"
         id="path4149"
         inkscape:connector-curvature="0"
         sodipodi:nodetypes="sssscsssscssssscsssscscscsssssscssssssscscscssssssssssscsssssccsssssssssssssscsscssss" />
      <path
         style="fill:#795548;fill-opacity:1;stroke:none;stroke-width:5.4000001;stroke-miterlimit:4;stroke-dasharray:none;stroke-opacity:1"
         id="path4177"
         d="m 424.18577,549.73922 c 0.0676,0.13841 0.0595,0.35871 0.20274,0.41522 0.0971,0.0383 0.21085,-0.20082 0.14194,-0.27927 -0.15583,-0.17739 -0.42773,-0.38606 -0.64481,-0.29319 -0.1687,0.0722 -0.12844,0.59715 0.0484,0.54832 0.178,-0.0491 0.82501,-1.38327 0.87389,-1.47822 0.15138,-0.21862 0.44547,-0.39008 0.45414,-0.65585 0.005,-0.15088 -0.2824,-0.18871 -0.42789,-0.14841 -0.25422,0.0704 -0.44689,0.28251 -0.65259,0.44765 -0.0387,0.0311 0.0961,-0.0531 0.1438,-0.0392 0.0308,0.009 0.03,0.12264 0.0325,0.0906 0.0233,-0.2965 0.0204,-0.59447 0.0306,-0.89171 0.14277,-0.16312 0.28554,-0.32623 0.42832,-0.48935 -0.0478,0.0208 -0.13918,0.0105 -0.1435,0.0625 0.19057,1.67632 0.12233,0.051 -0.0604,1.03528 -0.008,0.0447 0.0943,-0.051 0.0966,-0.0964 0.008,-0.15759 -0.0453,-0.31232 -0.0679,-0.46848 0.0392,-0.17157 0.19891,-0.35864 0.11758,-0.5147 -0.62537,0.61406 -0.12086,0.14924 -0.12346,0.0623 -0.003,-0.10538 -0.0962,-0.18764 -0.14578,-0.28069 -0.0174,-0.0327 -0.0649,-0.13205 -0.0551,-0.0964 0.0594,0.21511 0.13637,0.425 0.20456,0.63751 2.34756,-0.6689 1.13611,0.44074 0.83714,0.37599 -0.24043,-0.0521 -0.46556,-0.17868 -0.71074,-0.19874 -0.13307,-0.0109 -0.25542,0.0786 -0.38542,0.10908 -0.0506,0.0118 0.12426,-0.006 0.14652,-0.0531 0.0209,-0.0441 -0.0383,-0.0898 -0.0574,-0.13476 -0.0753,0.054 -0.13327,0.16284 -0.22593,0.16199 -0.13672,-10e-4 -0.27125,-0.0778 -0.37442,-0.16754 -0.0512,-0.0445 0.0116,-0.23387 -0.046,-0.19815 -0.0724,0.0449 0.0148,0.18801 -0.0412,0.25221 -0.18334,0.21024 -0.9958,0.39624 -1.10829,0.43037 -1.62579,1.17177 -0.0888,-0.15725 -0.79201,0.99182 -0.054,0.0883 -0.33443,0.22737 -0.27612,0.14188 0.34451,-0.50505 0.57541,-1.22498 1.15253,-1.42671 0.96005,-0.33558 -0.34903,1.12044 -0.5194,1.31533 -0.005,-0.002 -0.73753,-0.4366 -0.48375,0.21505 0.0427,0.10961 0.22878,-0.1001 0.29068,-0.20013 0.0611,-0.0986 0.019,-0.23221 0.0466,-0.3449 0.0111,-0.0453 0.0355,-0.1562 0.0678,-0.12256 0.0561,0.0583 0.0293,0.15915 0.0439,0.23872 0.0174,0.19132 0.12948,0.74986 0.0523,0.57394 -0.10098,-0.23018 -0.0747,-0.49744 -0.12663,-0.74337 -0.0172,-0.0815 -0.0656,-0.15466 -0.0803,-0.23664 -0.005,-0.0257 0.0412,-0.0548 0.0242,-0.0746 -0.0674,-0.0789 -0.25988,-0.2907 -0.24829,-0.18762 0.0194,0.17283 0.18461,0.29481 0.27691,0.44221 -0.67475,-0.0724 0.6528,-0.0138 0.5397,-0.16405 -0.0653,-0.0867 -0.17888,-0.18617 -0.2839,-0.15904 -0.12736,0.0329 -0.17548,0.19618 -0.25757,0.29896 -0.0264,0.033 0.0492,-0.0783 0.09,-0.0892 0.16683,-0.0443 0.34196,-0.0472 0.51294,-0.0708 0.38156,-0.22065 0.76302,0.0756 1.13999,0.0269 0.0424,-0.005 0.018,-0.10555 -0.019,-0.12697 -0.0325,-0.0188 -0.0595,0.0754 -0.0943,0.0615 -0.0766,-0.0307 -0.0981,-0.18801 -0.1789,-0.17108 -0.26924,0.0564 -0.49383,0.24254 -0.74075,0.36381 0.12442,0.006 0.26256,0.0763 0.37325,0.0191 0.13706,-0.0708 0.17505,-0.25754 0.28922,-0.36128 0.30812,-0.27996 0.61329,-0.57289 0.97182,-0.78448 0.14245,-0.0841 -0.18629,0.27632 -0.30534,0.39115 -0.99113,0.95603 -0.51019,-0.011 -0.9222,1.66313 0.0884,0.0606 0.37213,0.29582 0.21041,-0.25898 -0.068,-0.23323 -0.21623,-0.44842 -0.39597,-0.61186 -0.0532,-0.0484 -0.0783,0.14742 -0.0448,0.21106 0.66985,1.2722 0.42203,1.04783 1.42639,1.30956 -0.1034,-0.10236 -0.17165,-0.2627 -0.31022,-0.30707 -0.17426,-0.0558 -0.36541,0.0203 -0.548,0.0323 -0.19676,0.0142 -0.39352,0.0284 -0.59029,0.0426 -0.0947,-0.0398 -0.18145,-0.11347 -0.28397,-0.11951 -0.0807,-0.005 -0.14826,0.065 -0.22525,0.0895 -0.25392,0.0808 -0.51115,0.15067 -0.76673,0.226 0.49906,2.23704 -3.39514,-3.07827 -2.41038,-2.47929 1.10991,0.67511 1.73827,1.97297 2.82484,2.68505 1.86628,1.22307 0.8077,-0.51283 0.75053,-0.54079 -0.0669,-0.0327 -0.10899,0.10158 -0.16349,0.15237 -0.0598,0.0378 -0.11263,0.0898 -0.17931,0.11337 -0.1181,0.0417 -0.29109,-0.0199 -0.36722,0.0796 -0.13756,0.17972 -0.10263,0.61148 -0.0648,0.83768 0.0114,0.0683 -0.0158,0.19709 0.0534,0.20089 0.14488,0.008 0.26537,-0.11743 0.39805,-0.17615 0.0651,0.0221 0.15888,0.008 0.19539,0.0662 0.0416,0.0664 -0.0308,0.16038 -0.007,0.23492 0.0547,0.16932 0.25894,0.30169 0.23706,0.47827 -0.0206,0.16662 -0.30303,0.20637 -0.34212,0.36965 -0.0238,0.0994 0.23026,0.33122 0.19751,0.23443 -0.24947,-0.73735 -0.56907,-1.44909 -0.8536,-2.17363 -0.65783,-0.24279 -1.31566,-0.48557 -1.97348,-0.72835 -0.0388,0.092 -0.2108,0.24353 -0.11638,0.2759 0.10437,0.0358 0.13147,-0.19031 0.23174,-0.23635 0.17578,-0.0807 0.75877,-0.13935 0.56558,-0.12981 -0.30141,0.0149 -0.59866,0.0816 -0.89348,0.146 -0.14266,0.0312 0.29046,-0.0306 0.43568,-0.046 -0.0187,0.038 -0.0375,0.0759 -0.0562,0.11393 0.0372,0.14661 0.15863,0.29603 0.11169,0.43982 -0.0252,0.0772 -0.28623,0.008 -0.23683,-0.0565 0.2098,-0.27352 0.56261,-0.40794 0.7911,-0.66606 0.16827,-0.1901 0.25382,-0.43976 0.38184,-0.659 0.14584,-0.24977 0.29315,-0.49869 0.43972,-0.74804 0.006,-0.0913 -0.0711,-0.25839 -0.0433,-0.34023 0.0443,-0.13059 0.18417,-0.24995 0.32275,-0.26713 0.03,-0.004 0.0509,0.0327 0.0763,0.049 0.0132,-0.12403 0.0265,-0.24806 0.0397,-0.37209 -0.0165,-0.002 -0.0434,-0.0205 -0.0496,-0.005 -0.0699,0.17304 -2.8e-4,0.57642 -0.42089,0.47337 -0.0981,-0.024 0.10415,-0.19126 0.0859,-0.2906 0.36706,0.15263 0.13235,0.0317 0.64691,0.53842 0.0596,0.0587 -0.11687,-0.12017 -0.18188,-0.17276 -0.18566,-0.15017 -0.35,-0.34035 -0.5693,-0.43485 -0.0615,-0.0265 0.0155,0.133 0.0232,0.19951 -0.0685,-0.0933 -0.13706,-0.18652 -0.2056,-0.27979 9.4e-4,-0.0979 -0.0544,-0.37329 0.003,-0.29381 0.0937,0.13015 -0.008,0.37046 0.12101,0.46574 0.077,0.0568 1.75928,0.90747 1.93321,0.0746 0.037,-0.17736 -1.65617,0.2864 -0.3904,-0.041 0.0157,-0.0128 0.82249,-0.827 0.39304,0.223 -0.0329,0.0805 -0.10919,-0.1767 -0.19607,-0.17225 -0.16701,0.009 -0.18901,0.67099 -0.48182,0.44744 -0.10892,-0.0831 0.15873,-0.22341 0.2381,-0.33511 0.0512,-0.12209 0.20499,-0.19954 0.22424,-0.33157 0.0182,-0.12478 -0.095,-0.24129 -0.0905,-0.3673 0.002,-0.0459 0.0737,-0.11922 0.10671,-0.0873 0.0775,0.0749 0.25708,0.66722 0.27924,0.73476 -0.014,0.0889 -0.003,0.18536 -0.042,0.2667 -0.0294,0.0621 -0.10623,0.0884 -0.1509,0.14066 -0.0326,0.0382 -0.0788,0.1784 -0.0788,0.12823 -3e-5,-0.69628 0.44747,-0.41666 -0.40403,-1.25791 -0.27202,-0.26875 -0.64701,-0.40774 -0.97052,-0.61161 0.0858,0.26864 -0.089,-0.20763 0.54579,-0.0969 0.24265,0.0423 0.4178,0.26479 0.64384,0.36266 0.67753,0.29336 1.01265,-0.0105 1.46184,0.99989 0.1056,0.23754 -0.45691,-0.24807 -0.68537,-0.37211 0.11526,-1.00327 0.7439,1.07229 0.24128,-0.37906 3.65787,1.63168 1.35031,6.80468 -2.30755,5.173 l 0,0 c -0.18254,-0.12392 -0.34009,-0.29689 -0.54763,-0.37175 -0.0699,-0.0252 0.0576,0.13693 0.0865,0.2054 -0.0926,-0.0964 -0.18515,-0.19282 -0.27772,-0.28923 -0.29495,-0.22316 -0.88165,-0.29963 -0.88484,-0.66948 -0.003,-0.30865 0.58678,0.19182 0.8815,0.28353 0.10834,0.0337 0.0189,-0.12048 0.21526,0.0946 0.0159,0.0174 -0.0424,0.0387 -0.0641,0.0297 -0.19294,-0.0807 -0.37115,-0.19285 -0.55673,-0.28928 -0.54487,-0.24655 -1.18258,-0.34809 -1.63463,-0.73966 -0.43842,-0.37978 -0.77432,-1.58752 -1.02568,-2.15453 -0.0424,-0.0957 -0.16791,-0.15962 -0.16946,-0.26424 -0.002,-0.1371 0.18025,-0.1113 0.25012,-0.10805 -0.0755,0.0624 -0.17096,0.10651 -0.22641,0.18724 -0.0324,0.0472 -0.0329,0.22639 -0.0195,0.17072 0.0879,-0.36328 0.0412,-0.50296 0.0604,-0.93826 0.009,-0.21552 -0.0147,-0.43847 0.0457,-0.64557 0.0535,-0.18331 0.19145,-0.33043 0.28718,-0.49565 0.1732,-0.22728 0.58399,-0.63824 0.67666,-1.00775 0.0514,-0.20514 -0.003,-0.44645 0.1112,-0.62467 0.11033,-0.17266 0.31918,-0.26707 0.50858,-0.34526 0.0861,-0.0355 0.18571,0.0136 0.27857,0.0203 0.23299,-0.25645 0.46597,-0.5129 0.69895,-0.76935 0.25955,-0.246 0.58866,-0.43504 0.77864,-0.73801 0.0914,-0.14574 -0.63309,0.23764 -0.46116,0.23172 0.3683,-0.0127 0.70955,-0.2162 1.07623,-0.25287 0.44117,-0.0441 0.89988,-0.0951 1.33006,0.0122 0.46089,0.11504 0.68294,0.56369 0.9089,0.91123 0.15189,-0.0169 0.3201,-0.12128 0.45567,-0.0507 0.23964,0.1247 0.37628,0.38771 0.56443,0.58156 -0.0236,-0.008 -0.0881,-0.0413 -0.0708,-0.0235 0.11988,0.12377 0.27139,0.21572 0.38365,0.34644 0.82948,0.9659 0.73274,0.8924 1.25787,1.86318 0.29282,0.80651 0.16401,0.44474 0.22575,1.28541 0.019,0.25859 0.0979,0.51506 0.0801,0.77374 -0.0264,0.38303 -0.29094,0.72715 -0.23906,1.12675 -0.13928,0.26159 -0.26638,0.53003 -0.41783,0.78476 -0.0737,0.124 -0.23837,0.20567 -0.25612,0.34883 -0.019,0.15323 0.19104,0.28407 0.15893,0.43511 -0.0215,0.1009 -0.18785,0.0855 -0.27962,0.1326 -0.42748,0.21939 -0.84259,0.46244 -1.27523,0.67204 -0.18075,0.2122 -0.47288,0.55947 -0.64657,0.7381 -0.0451,0.0464 -0.11959,0.0642 -0.15303,0.1196 -0.19582,0.32462 -0.31917,0.69082 -0.52708,1.00785 -0.56918,0.86789 -0.60282,0.8089 -1.32256,1.31727 0.31306,-0.29808 0.53741,-0.47923 -1.04206,0.0265 -0.0854,0.0273 0.1221,0.1313 0.18402,0.19613 0.0189,0.0197 -0.0279,-0.0653 -0.0548,-0.0609 -1.59394,0.26293 1.4112,0.72921 -2.69545,-0.52996 -0.30622,-0.75512 -0.59112,-1.51924 -0.91867,-2.26535 -0.0133,-0.0302 -0.12441,-0.0428 -0.0919,-0.0368 0.0695,0.0128 0.16624,-0.002 0.20396,0.0574 0.0275,0.0435 -0.1343,0.14819 -0.0874,0.12708 0.29453,-0.13265 0.1027,-0.3026 0.0176,-0.53065 0.0911,-0.22924 0.19025,-0.45543 0.2733,-0.6877 0.0684,-0.19122 0.0928,-0.39873 0.18062,-0.58183 0.15414,-0.32133 0.40724,-0.59189 0.54088,-0.92228 0.14558,-0.35989 0.17237,-0.75792 0.28858,-1.12833 0.35197,-1.12184 0.37409,-1.05077 0.91807,-2.00157 0.26198,-0.14275 0.5734,-0.21887 0.78595,-0.42825 0.41231,-0.40617 0.51134,-1.82858 1.72079,-1.12372 1.08513,0.63241 1.59191,2.01711 2.67418,2.65439 0.91593,0.53933 -2.22897,-4.73402 -2.09437,-2.40453 -0.14185,0.0683 -0.49254,0.0623 -0.42554,0.20475 0.0935,0.1987 0.41094,0.15693 0.6228,0.21465 1.77081,0.48245 -0.209,-0.0778 1.15996,0.13898 1.58313,0.25072 -0.0318,0.29206 1.90278,0.0892 1.16231,0.71747 1.30415,0.60756 1.98388,2.03359 0.0932,0.19557 -0.0113,0.43691 0.0322,0.64916 0.008,0.0371 0.0641,-0.10627 0.0854,-0.0749 0.0374,0.0552 -5e-4,0.13332 -7.4e-4,0.19998 0.13916,0.17538 0.27833,0.35077 0.4175,0.52615 -0.11446,0.4957 -0.12982,1.02535 -0.34338,1.48709 -0.19889,0.43002 -1.11882,1.36131 -1.60779,1.5636 -1.09662,0.45368 1.23864,-1.1861 0.66778,-0.16843 -0.065,0.11587 -0.26036,0.053 -0.39054,0.0795 -0.29698,0.31347 -0.52994,0.70347 -0.89094,0.94041 -0.20924,0.13734 -0.49828,0.0633 -0.73957,0.1298 -0.26259,0.0724 -0.49838,0.23332 -0.76578,0.28521 -0.24057,0.0467 -0.49022,-0.002 -0.73512,0.006 -0.7124,0.0245 0.0472,0.0557 -0.68575,0.008 -0.084,0.0436 -0.1592,0.112 -0.25193,0.13073 -0.32302,0.0652 -1.13354,-0.009 -1.36701,-0.0392 -0.34409,-0.0438 -1.06581,-0.18101 -1.42954,-0.31556 -0.10908,-0.0403 -0.20363,-0.11243 -0.30545,-0.16864 -0.70038,-0.14263 -0.21623,0.0194 -1.10608,-0.82298 -0.16408,-0.15531 -0.34781,-0.28981 -0.50486,-0.45223 -0.72829,-0.75316 -0.55863,-0.70704 -1.09941,-1.83861 -0.002,-0.005 -0.002,0.01 -0.003,0.015 0.0558,-0.30309 0.15862,-0.59939 0.18038,-0.90681 0.0221,-0.31253 -0.0484,-0.62749 -0.0219,-0.93968 0.0766,-0.9029 0.0244,-0.7847 0.36656,-1.24453 0.15679,-0.21067 0.31463,-0.42055 0.47195,-0.63082 1.1e-4,-0.13566 0.10874,-0.48855 3.3e-4,-0.40699 -0.30076,0.22623 -0.98137,1.11918 -0.66868,0.90973 0.61862,-0.41437 1.0019,-1.12055 1.61474,-1.54343 0.10602,-0.0732 0.20099,0.20847 0.32963,0.20173 0.24742,-0.013 0.7445,-0.48818 0.89393,-0.61499 2.71956,-1.17979 -0.87267,0.50428 1.57939,-1.06114 0.27931,-0.17831 0.63078,-0.21024 0.92764,-0.35751 0.33051,-0.16396 0.60491,-0.43495 0.94722,-0.57259 0.20621,-0.0829 0.66237,0.24248 0.76618,0.30165 0.20472,-0.13478 0.37293,-0.36095 0.61416,-0.40436 0.66005,-0.11876 0.59597,0.10661 0.69268,0.44612 0.0229,0.0806 -0.13394,-0.20382 -0.0604,-0.24397 0.12841,-0.0701 0.29358,0.0105 0.43723,0.0383 0.47369,0.0915 0.94118,0.2126 1.41177,0.3189 0.23109,0.30557 0.49439,0.58925 0.69326,0.91669 0.14339,0.23611 0.21002,0.51119 0.32615,0.76182 0.0992,0.2141 0.21191,0.42169 0.31955,0.63168 0.3034,0.59188 0.74869,1.26005 0.6406,1.9571 0.30279,0.12554 0.29177,0.0446 0.34444,0.43293 0.10906,0.8041 0.0789,0.94918 -0.28537,1.78121 -0.0655,0.14953 -0.1947,0.26205 -0.29068,0.39409 -0.0389,0.0534 0.0795,-0.10557 0.11932,-0.15835 -0.009,-0.18226 0.0342,-0.37471 -0.0266,-0.54676 -0.0513,-0.14529 -0.0109,0.30834 -0.003,0.46223 0.006,0.12533 0.10009,0.26108 0.0449,0.37377 -0.19826,0.40481 -0.68052,1.02915 -1.19228,1.16042 -0.15136,0.0388 -0.30996,-0.04 -0.46493,-0.06 -1.96053,1.03232 0.38049,-0.44485 -1.28823,1.84547 -0.40346,0.55376 -0.91086,1.10218 -1.54934,1.3507 -1.21046,0.47117 -2.67824,-0.47268 -3.65937,-1.05131 -2.41798,-2.07255 0.51305,-5.49209 2.93103,-3.41954 z"
         inkscape:connector-curvature="0" />
      <path
         style="fill:#795548;fill-opacity:1;stroke:none;stroke-width:5.4000001;stroke-miterlimit:4;stroke-dasharray:none;stroke-opacity:1"
         id="path4179"
         d="m 425.92719,563.16735 c -0.37809,0.27997 -0.95653,0.60891 -1.15544,1.09161 -0.0891,0.21616 -0.0488,0.46514 -0.0814,0.69665 -0.0207,0.14722 -0.073,0.29048 -0.0785,0.43904 -0.003,0.0927 -0.0384,0.25164 0.0518,0.27358 0.0856,0.0208 0.0883,-0.1525 0.13246,-0.22875 -0.62116,0.21431 -1.63538,0.68684 -2.38164,0.57256 -0.29878,-0.0457 -0.55738,-0.23525 -0.82717,-0.37154 -0.31423,-0.15874 -0.64329,-0.29943 -0.92334,-0.51278 -0.6758,-0.51484 -0.83782,-0.82106 -1.27643,-1.44372 0.20887,-0.8432 -0.87077,-0.72404 -1.05128,-1.23314 -0.0809,-0.22825 0.22684,-0.4592 0.19648,-0.69947 -0.0118,-0.0937 -0.23343,0.1386 -0.27788,0.0553 -0.0632,-0.11851 0.012,-1.291 0.0145,-1.34556 0.34611,-0.27701 -0.0275,-0.60834 0.0523,-0.89704 0.0443,-0.16035 0.26904,-0.24766 0.27917,-0.41371 0.0213,-0.34943 -0.36047,-0.51053 -0.56001,-0.67917 -0.0467,-0.0395 -0.0808,-0.0919 -0.12123,-0.13778 0.63746,-2.0782 0.20155,-2.08228 2.91413,-2.87121 0.31021,-0.0902 0.62465,0.16567 0.93946,0.23829 0.0654,0.0151 0.1899,-0.0419 0.19977,0.0245 0.0108,0.0729 -0.10311,0.12496 -0.17631,0.13327 -0.0574,0.007 -0.0957,-0.0646 -0.14349,-0.097 0.32918,-0.0623 0.72238,-0.14767 1.03418,-0.0623 0.2665,0.073 0.45505,0.31631 0.70046,0.44331 0.31176,0.16132 0.68565,0.20799 0.96611,0.41909 0.71889,0.5411 0.70015,0.62339 0.86497,1.18098 -0.0711,-0.22169 -0.0476,-0.50164 -0.2134,-0.66507 -0.11874,-0.11703 -0.6536,-0.0988 -0.4988,-0.0369 0.29195,0.11681 0.66656,0.0204 0.92066,0.20566 0.40594,0.29593 0.58654,0.82513 0.95771,1.16365 0.0596,0.0544 0.27293,-0.0157 0.22769,-0.0825 -0.0904,-0.13359 -0.28774,-0.14589 -0.43161,-0.21883 0.17098,0.0652 0.40469,0.0482 0.51294,0.19576 0.0925,0.12613 0.45815,1.64652 0.4916,1.76796 0.0896,0.32525 0.27106,0.63356 0.28694,0.97054 0.076,1.61262 -0.62997,0.1013 0.16197,1.43065 0.17606,0.0963 0.49126,0.0917 0.52819,0.28895 0.0645,0.34478 -0.32391,1.86554 -0.33206,2.37575 -0.009,0.58479 0.35331,1.46504 -0.098,2.01223 -0.49978,0.60603 -1.25915,0.93955 -1.88872,1.40933 -0.8529,0.23702 0.22719,-0.22613 0.25678,-0.30706 0.0442,-0.12086 -0.30342,-0.25559 -0.199,-0.3308 0.12167,-0.0876 0.39176,0.0276 0.41401,0.17593 0.0279,0.1861 -0.21173,0.31116 -0.31759,0.46673 -1.89522,1.58987 -0.18068,0.56156 -2.12081,0.84819 -0.27342,0.0404 -0.50534,0.22575 -0.76655,0.3161 -0.15488,0.0536 -0.56682,0.0156 -0.66611,0.0181 -0.14175,0.003 -0.28284,0.0207 -0.42426,0.0311 -0.24687,-0.31112 -0.55315,0.0732 -0.80496,-0.0197 -0.15138,-0.0559 -0.19404,-0.3696 -0.35122,-0.33313 -0.18664,0.0433 -0.11767,0.45726 -0.30712,0.48586 -0.27283,0.0412 -0.49629,-0.24845 -0.76153,-0.3245 -0.24205,-0.0694 -0.49841,-0.0721 -0.74761,-0.10816 -0.55292,0.22592 -0.0679,-0.0242 -0.0494,-0.0265 0.14893,-0.0191 0.59615,-0.0263 0.45033,0.01 -2.5872,0.63524 -0.52371,0.3229 -1.10694,-0.0921 -0.39937,-0.28417 -0.84386,-0.4989 -1.26578,-0.74836 -0.11758,-0.0392 -0.2658,-0.0294 -0.35274,-0.11776 -0.17942,-0.18233 -0.28561,-0.42564 -0.40476,-0.65201 -0.39052,-0.742 -0.69377,-1.33197 -0.72922,-2.1862 -0.0469,-1.13156 -0.12038,-1.14393 0.21721,-0.91524 0.0497,0.091 0.18962,0.17768 0.14904,0.27313 -0.0497,0.11698 -0.32508,0.30054 -0.33919,0.17422 -0.0352,-0.31511 0.19985,-0.60402 0.25633,-0.91602 0.0218,-0.12028 -0.0702,-0.2526 -0.0243,-0.3659 0.0702,-0.17351 0.22202,-0.30259 0.35018,-0.43903 0.28446,-0.30282 0.59057,-0.58455 0.88586,-0.87683 0.35381,-0.42815 0.9193,-0.3515 1.22334,-0.83528 0.0602,-0.0958 -0.0555,-0.27168 0.0366,-0.33744 1.24491,-0.88913 1.19484,-0.95905 1.21517,-0.39849 -0.0837,0.0608 -0.15559,0.14266 -0.2511,0.18244 -0.10905,0.0454 -0.44449,0.13514 -0.34797,0.0671 0.22721,-0.16027 0.53278,-0.1874 0.75517,-0.35429 0.057,-0.0428 -0.0692,-0.208 0.002,-0.21377 0.56742,-0.0461 -0.0443,0.52512 0.41651,-0.007 0.18251,-0.0417 0.36502,-0.0834 0.54752,-0.12516 0.0611,-0.0652 0.0969,-0.17271 0.18327,-0.19572 0.18358,-0.0489 0.39165,0.0607 0.56992,-0.005 0.0643,-0.0237 -0.0423,-0.15267 0.001,-0.20545 0.0547,-0.0662 0.16711,-0.0465 0.24188,-0.0887 0.23365,-0.13205 0.45296,-0.28798 0.67944,-0.43197 3.83638,3.34616 3.5461,1.3743 2.92349,3.93689 -0.0113,0.0465 0.0568,0.15327 0.01,0.14329 -0.1424,-0.0303 -0.35594,-0.0772 -0.37654,-0.22135 -0.0181,-0.12679 0.27568,-0.34527 0.31307,-0.22277 0.0741,0.24265 -0.10234,0.49697 -0.15351,0.74546 -0.11415,0.26566 -0.22102,0.53457 -0.34246,0.79698 -0.08,0.17288 -0.14609,0.35659 -0.26151,0.50814 -0.0472,0.062 0.0382,-0.30593 0.0487,-0.22869 0.036,0.26624 0.16635,0.57438 0.0293,0.80547 -0.48939,0.82531 -0.60981,0.38551 -0.69661,0.14785 -3.9e-4,0.0716 0.0326,0.15171 -10e-4,0.21491 -0.29487,0.55243 -1.32172,0.66677 -0.89052,1.67256 0.15124,0.35276 0.61799,-0.46992 0.85321,-0.77321 0.0443,-0.0571 -0.0491,-0.23085 -0.1075,-0.18832 -0.38539,0.28054 -0.67742,0.67083 -1.01614,1.00625 0.87088,0.0733 0.62422,-1.51736 1.28603,-1.5127 0.45604,0.003 -0.27531,0.92248 -0.62229,1.21844 -0.32129,0.27404 -2.08699,1.29224 -2.94346,1.17007 -0.10764,-0.0153 -0.0965,-0.19486 -0.14482,-0.2923 -0.34483,-0.75731 -1.27199,-0.29122 -1.77599,-0.67465 -0.4363,-0.33193 -0.60668,-0.9133 -0.91392,-1.36733 -0.10607,-0.15673 -0.2485,-0.29219 -0.32595,-0.46487 -0.0958,-0.2136 -0.11249,-0.45498 -0.18627,-0.67715 -0.0804,-0.24208 -0.18378,-0.47591 -0.27567,-0.71386 0.24405,-0.81814 0.035,-1.9616 0.73216,-2.45441 0.87294,-0.61705 2.12796,-0.43027 3.19114,-0.31884 0.31343,0.0329 0.38838,0.49914 0.61532,0.7178 0.10808,0.10413 0.28087,0.35387 0.38012,0.2413 0.1044,-0.11843 -0.12292,-0.29659 -0.22583,-0.41631 -0.0223,-0.026 -0.0607,0.0317 -0.0911,0.0476 0.40719,-0.18382 0.58163,-0.35304 1.09011,0.0729 0.079,0.0661 -0.31051,0.14264 -0.22978,0.20661 0.11947,0.0947 0.31034,-0.07 0.45656,-0.0269 0.0674,0.0199 0.0257,0.2092 0.093,0.18907 0.0893,-0.0267 0.0798,-0.16846 0.11964,-0.25268 -0.22572,0.002 -0.4605,-0.0581 -0.67716,0.005 -0.17566,0.0513 -0.29067,0.22306 -0.44433,0.32245 -0.0504,0.0326 0.097,-0.0733 0.13315,-0.12117 0.11187,-0.14832 0.14491,-0.376 0.3084,-0.46423 0.92141,-0.49726 1.32363,0.0172 1.01769,-0.34448 -0.19073,0.0945 -0.39088,0.17196 -0.57219,0.28347 -0.021,0.0129 0.045,0.0468 0.0657,0.0336 0.32221,-0.20593 0.59222,-0.5327 0.96412,-0.62172 0.91181,-0.21824 1.62242,0.4831 0.85746,-0.16007 -0.1919,0.47797 -0.91966,0.4268 -1.13566,0.84667 -0.26723,0.51945 -0.16951,1.15608 -0.26886,1.73173 -0.0222,0.12885 -0.01,0.4791 -0.0957,0.38043 -0.47062,-0.5412 -0.15859,-1.04229 0.002,-1.5904 -0.12719,-0.46478 0.0385,0.13365 0.0803,0.35633 0.008,0.0444 -0.0272,0.0976 -0.003,0.13537 0.0359,0.055 0.20553,0.0605 0.16312,0.1107 -0.38032,0.44997 -0.45974,0.0943 -0.63221,-0.16123 -0.0136,-0.13088 0.0438,-0.29194 -0.0409,-0.39265 -0.27426,-0.32608 -0.64657,-0.21061 -0.98555,-0.18739 -0.0994,0.007 -0.93924,0.064 -1.03553,0.0467 -0.15511,-0.0279 -0.28959,-0.12442 -0.43438,-0.18662 0.0367,0.0501 0.16853,0.17156 0.11008,0.15045 -0.2847,-0.10283 -0.54167,-0.2704 -0.8131,-0.40439 -0.14335,-0.0708 -0.28518,-0.14485 -0.43123,-0.20984 -0.12245,-0.0545 -0.26229,-0.0739 -0.37369,-0.14837 -0.0594,-0.0398 0.15788,-0.009 0.21086,0.0395 0.20815,0.18867 0.36227,0.42948 0.54341,0.64422 0.90753,-0.44433 0.55603,-0.31168 1.02078,-0.47786 -3.43639,1.73013 -5.88316,-3.12965 -2.44677,-4.85978 l 0,0 c 0.7092,-0.10948 0.24097,-0.0212 1.38437,-0.35619 0.31621,0.0518 0.64635,0.0491 0.94864,0.15538 0.24848,0.0874 0.44633,0.27987 0.67262,0.41467 0.0833,0.0496 0.16259,0.11222 0.25598,0.1385 0.0872,0.0246 0.29599,-0.0773 0.2717,0.01 -0.0548,0.19685 -1.65535,-0.20596 0.46546,0.20007 0.37173,0.19851 0.008,0.39627 0.56269,0.6533 0.25144,0.11644 0.54768,0.093 0.81331,0.17191 1.46472,0.43488 -0.004,0.31981 2.00723,0.25287 1.15122,1.30253 -0.66345,-0.68184 0.68658,0.55417 0.2308,0.2113 0.38033,0.50392 0.62073,0.70421 0.25444,0.21198 0.65815,0.24698 0.84727,0.51884 0.53355,0.76701 0.38568,1.10518 0.26392,1.80925 0.0749,-0.004 0.17281,0.0423 0.22453,-0.012 0.0374,-0.0392 -0.10097,-0.19194 -0.0759,-0.14385 0.55424,1.06399 0.79197,1.15852 -0.0287,2.79819 -0.22082,0.44122 -0.72275,0.67892 -1.13465,0.95053 -0.25142,0.16579 -0.55596,0.23172 -0.83394,0.34758 -2.24823,0.79643 0.0219,0.005 0.37229,-0.19986 0.13422,-0.0784 -0.30716,0.0785 -0.43603,0.16543 -1.20949,0.81594 1.5879,-0.36386 -1.16478,0.63399 -0.15175,-0.0185 -0.60572,-0.0285 -0.45527,-0.0556 0.20712,-0.0373 0.42171,0.001 0.63092,0.024 0.0692,0.008 0.25588,0.10511 0.1979,0.0666 -0.10426,-0.0693 -0.22104,-0.20126 -0.33943,-0.16061 -0.32302,0.1109 -0.56779,0.37969 -0.85169,0.56954 -0.37524,0.0922 -0.75049,0.18437 -1.12573,0.27656 -0.1932,-0.0701 -1.07349,-0.39971 -1.22172,-0.40382 -0.11288,-0.003 -0.17337,0.20689 -0.28407,0.1846 -0.26804,-0.054 -0.48202,-0.25825 -0.72303,-0.38738 0.0735,0.0326 0.2696,0.0341 0.22058,0.0979 -0.0762,0.0991 -0.24291,0.0594 -0.36437,0.0892 -0.20494,-0.1236 -0.4037,-0.25808 -0.61482,-0.37081 -0.32416,-0.1731 -0.65764,-0.32825 -0.98957,-0.48592 -0.11928,-0.0567 -0.24942,-0.0909 -0.36375,-0.15695 -0.0172,-0.01 0.0361,-0.019 0.056,-0.0209 3.63707,-0.35768 2.78261,0.69933 2.92654,-2.70958 -0.0774,0.1868 0.0636,-0.20179 0.24454,0.14094 0.0348,0.0659 -0.0628,0.23841 -0.1187,0.18923 -0.38846,-0.34175 -0.22819,-0.87838 -0.90091,-0.8273 -0.0804,0.006 0.0656,0.14722 0.0984,0.22084 0.12061,0.0291 0.48285,0.11464 0.36185,0.0872 -1.10654,-0.25108 -0.72977,-0.3539 -2.16747,0.94396 -0.2801,0.25286 -0.66631,1.30831 -0.64307,0.93167 0.0328,-0.53073 0.37127,-1.00887 0.67478,-1.44549 0.15194,-0.21857 0.43419,-0.30809 0.65129,-0.46213 -0.30085,0.28469 -0.63966,0.53399 -0.90253,0.85407 -0.0831,0.10118 0.25323,-0.0909 0.34904,-0.18013 0.29508,-0.27483 0.43916,-0.73947 0.80953,-0.89894 0.34934,-0.15041 -0.58442,0.52162 -0.73964,0.86885 -0.10101,0.22596 1.40045,-0.23259 0.4919,-0.55621 0.13751,-0.22539 0.30909,-0.43325 0.41251,-0.67618 0.0164,-0.0386 -0.095,-0.0257 -0.12583,0.003 -0.0985,0.0906 -0.25799,0.45868 -0.23268,0.32725 0.27948,-1.45157 0.31278,-0.65355 0.36595,-0.30254 -0.0543,0.0846 -0.0911,0.32401 -0.16305,0.2538 -0.1458,-0.14226 -0.23717,-0.39062 -0.1765,-0.58508 0.0606,-0.19431 0.3871,-0.19809 0.47771,-0.38035 0.0473,-0.095 -0.0973,-0.37464 -0.14858,-0.28167 -0.92902,1.68534 2.39809,2.81115 3.01756,3.30068 0.43821,-0.34156 0.63899,-0.4462 0.2936,-0.27609 -0.18531,0.0913 -0.36422,0.19651 -0.55499,0.27574 -0.0584,0.0243 -0.13384,-0.002 -0.1869,0.0324 -0.0641,0.0416 -0.0925,0.23913 -0.14136,0.18039 -0.0804,-0.0967 -0.0145,-0.25101 -0.0217,-0.37652 -0.0798,0.47885 0.0484,0.46808 -0.36739,0.63825 -0.0995,0.0407 -0.38122,0.16434 -0.31181,0.0823 0.0908,-0.10731 0.52528,-0.18785 0.3859,-0.16987 -0.74983,0.0967 -0.81217,0.24106 -1.39446,0.64999 -0.11342,-0.0305 -0.4358,-0.0231 -0.34027,-0.0915 0.25912,-0.18535 0.62125,-0.16389 0.90359,-0.31148 0.0751,-0.0393 -0.17346,10e-4 -0.25265,-0.0288 -0.0824,-0.0315 -0.14088,-0.19415 -0.21764,-0.15064 -0.28177,0.15969 -0.19546,0.60712 -0.18844,0.83189 0.0959,-0.25733 0.24766,-0.50031 0.28769,-0.772 0.0114,-0.0777 -0.21265,-0.1414 -0.1468,-0.18413 0.0908,-0.0589 0.26766,0.17112 0.31606,0.0743 0.0862,-0.17239 0.12665,-0.58238 -0.0659,-0.57446 -0.10966,0.005 -0.11783,1.10025 -0.11899,1.13711 -0.0815,0.0951 -0.27377,0.40699 -0.24448,0.28524 0.0529,-0.21995 0.31617,-0.37238 0.31986,-0.59857 0.004,-0.24376 -0.20643,-0.44192 -0.2992,-0.66736 -0.0848,-0.20611 -0.11471,-0.43789 -0.23326,-0.62661 -0.033,-0.0526 -0.23564,-0.003 -0.18278,-0.0357 0.10643,-0.0655 0.24453,-0.0517 0.36679,-0.0776 -0.39068,-0.0644 -0.80685,-0.04 -1.17203,-0.19306 -0.0989,-0.0414 0.36739,-0.18349 0.2603,-0.18898 -0.2641,-0.0135 -0.84329,-0.0933 -0.77653,0.16253 0.12788,0.49009 1.99084,-0.83122 1.69919,0.50244 0.0195,-0.0826 0.0924,-0.16989 0.0586,-0.24772 -0.0203,-0.0467 -0.18907,0.0337 -0.14259,0.0544 0.10906,0.0485 0.2408,0.008 0.35577,0.0404 0.13702,0.0382 0.25024,0.17638 0.39223,0.16804 0.91327,-0.0537 -0.10183,-0.36622 0.52646,-0.13408 0.53893,0.51285 -0.15568,-0.0106 0.49904,-0.0781 0.18048,-0.0186 0.33224,0.14764 0.50501,0.20304 0.04,0.0128 -0.0704,-0.10142 -0.10196,-0.0738 -0.0715,0.0626 -0.0753,0.17454 -0.11298,0.2618 -0.202,0.1184 -0.40399,0.23679 -0.60598,0.35518 0.45941,0.1449 -0.16327,-0.004 0.51656,-0.76828 0.19008,-0.21382 0.50793,-0.26997 0.73272,-0.44695 0.31414,-0.24733 0.95482,-1.07789 1.50582,-1.13245 0.0963,-0.01 0.0887,0.17202 0.13304,0.25803 -0.51273,0.41007 -1.13115,0.71507 -1.5382,1.2302 -0.12434,0.15736 -0.0567,0.46488 0.0969,0.5938 0.10101,0.0848 0.23355,-0.15005 0.28971,-0.26936 0.0905,-0.19221 0.2252,-0.43352 0.1307,-0.62379 -0.29232,-0.58858 -0.95656,0.70061 -0.16257,-0.49583 -0.36612,-1.06356 -0.12114,-0.5303 -0.76806,-1.58412 -0.0225,-0.054 0.0586,-0.10439 0.10359,-0.14179 0.0592,-0.0492 -0.0776,0.32837 -0.12959,0.18861 -0.24337,-0.21544 -0.50513,-0.41173 -0.73011,-0.64631 -0.72795,-0.75905 0.24016,-0.21836 0.67224,0.0162 0.12834,0.0697 0.47475,0.31371 0.33123,0.28672 -0.31889,-0.06 -0.61666,-0.21876 -0.89104,-0.39199 -0.32458,-0.20493 -0.59272,-0.48795 -0.88908,-0.73193 -0.17556,-0.0717 -0.6271,-0.0543 -0.52668,-0.21512 0.10216,-0.16366 0.36796,0.11615 0.55166,0.1751 0.0958,0.0307 0.19259,0.0585 0.28672,0.0939 0.0225,0.008 0.0378,0.0356 0.0618,0.0372 0.0687,0.005 0.27259,-0.003 0.20562,-0.0187 -0.13192,-0.0313 -0.27047,-0.0192 -0.40571,-0.0288 -0.24759,0.16392 -0.44594,0.49955 -0.74277,0.49175 -0.20987,-0.006 -0.21678,-0.36213 -0.3545,-0.52058 -0.0283,-0.0325 -0.16375,-0.051 -0.12534,-0.0315 0.20738,0.10524 0.41944,0.37818 0.63458,0.28989 2.27363,-0.93299 1.97215,-1.03606 2.47189,-2.82177 -0.13055,0.37801 -0.0219,0.16775 -0.42058,0.57206 -0.007,0.0204 0.0739,1.04335 0.0705,1.10088 -0.008,0.13834 -0.10741,0.2671 -0.0938,0.40502 0.006,0.0615 0.0967,0.0769 0.14503,0.1154 -0.20928,-0.16401 -0.21766,-0.31594 0.004,0.47211 0.0149,0.0529 0.10233,0.0788 0.0967,0.13347 -0.0159,0.15287 -0.1629,0.0777 -0.21919,0.0602 0.034,0.0435 0.12549,0.18023 0.10196,0.13034 -0.0455,-0.0966 -0.0718,-0.22784 -0.16888,-0.27225 -0.0948,-0.0433 -0.22032,0.1108 -0.30785,0.0543 -0.11674,-0.0754 -0.047,-0.36953 -0.18593,-0.37313 -0.64297,-0.0167 -0.98673,1.17946 -1.69296,0.92577 0.0769,-0.10187 0.10865,-0.26843 0.23076,-0.3056 0.0896,-0.0273 0.14546,0.11948 0.22658,0.16639 0.0723,0.0418 0.14716,0.0976 0.23073,0.098 0.14112,7.9e-4 0.67242,-0.20928 0.70638,-0.34401 0.0559,-0.22171 -0.0949,-0.44734 -0.14234,-0.67101 1.93571,-2.71 5.76823,0.0275 3.83251,2.73751 z"
         inkscape:connector-curvature="0" />
      <path
         style="fill:#795548;fill-opacity:1;stroke:none;stroke-width:5.4000001;stroke-miterlimit:4;stroke-dasharray:none;stroke-opacity:1"
         id="path4181"
         d="m 417.96345,563.22896 c 0.19378,-1.23798 -0.18857,0.32689 0.69791,-0.76902 0.18259,-0.22572 10e-4,-0.73547 0.27702,-0.82573 0.95713,-0.3131 3.5404,-1.10629 3.01078,-0.24977 -0.76607,1.23891 -2.59342,1.35508 -3.97661,1.81173 -0.21139,0.0698 0.19901,-0.39828 0.29852,-0.59742 0.63263,-0.56486 0.60177,-0.36776 0.75675,-1.33124 0.0528,-0.32796 -0.0503,-0.68221 0.0627,-0.99455 0.0742,-0.20501 0.39044,-0.25568 0.46415,-0.46087 0.047,-0.13072 -0.33757,0.0591 -0.36848,0.19454 -0.20339,0.89103 -0.19872,1.81706 -0.29808,2.72558 -1.55141,-3.50504 3.40547,-5.69907 4.95688,-2.19403 l 0,0 c -0.0361,0.91181 0.0534,1.83735 -0.10838,2.73542 -0.0341,0.18956 -0.26193,0.31971 -0.44963,0.36295 -0.0833,0.0192 0.0171,-0.17676 -0.0152,-0.25587 -0.0458,-0.11214 -0.0956,-0.25716 -0.21019,-0.2964 -0.067,-0.0229 -0.071,0.13249 -0.063,0.20285 0.0255,0.22621 0.10722,0.44249 0.16084,0.66374 1.52056,1.15085 -1.40297,-1.14861 -4.06019,2.18335 -0.61314,0.76883 1.96772,-0.15991 2.92485,-0.38566 0.17308,-0.0408 0.37416,-0.21249 0.36399,-0.39003 -0.008,-0.13937 -0.29106,-0.23472 -0.39439,-0.14086 -0.18686,0.16973 -0.16062,0.47865 -0.24093,0.71797 -1.91392,2.67948 -5.70327,-0.0272 -3.78936,-2.70668 z"
         inkscape:connector-curvature="0" />
      <path
         style="fill:#795548;fill-opacity:1;stroke:none;stroke-width:5.4000001;stroke-miterlimit:4;stroke-dasharray:none;stroke-opacity:1"
         id="path4183"
         d="m 418.54378,522.91498 c -0.31266,0.77304 -0.81087,1.43493 -0.43907,2.301 0.11745,0.27359 0.44633,0.40199 0.61661,0.64623 0.86232,1.23691 -0.18264,-0.0362 0.17156,1.02009 0.0233,0.0695 0.10486,-0.10234 0.15729,-0.15351 0.0127,-0.0597 0.0963,-0.19757 0.0381,-0.17908 -0.54382,0.17288 -0.0777,0.33473 -0.0503,0.59182 0.006,0.0533 -0.1195,-0.0262 -0.1605,0.008 -0.0253,0.0213 0.0798,0.028 0.0781,0.061 -0.0113,0.21664 -0.0763,0.42709 -0.1145,0.64064 0.0863,0.0528 0.17946,0.0959 0.25895,0.15852 0.39608,0.31215 -0.14842,0.19901 -0.0305,0.88828 0.032,0.18734 0.30913,0.25302 0.37149,0.43256 0.55869,1.60858 -0.52637,-0.0653 0.32748,1.11845 0.0118,0.10702 0.0135,0.21565 0.0354,0.32105 0.12701,0.60997 0.14099,0.38339 0.18875,0.83746 0.0254,0.24165 0.0162,0.48793 0.0643,0.72611 0.0102,0.0505 0.069,0.0765 0.10519,0.11323 0.067,0.068 0.13618,0.13385 0.20428,0.20078 -0.0414,-1.20678 0.7731,1.0464 0.59525,0.77386 -1.42498,-2.18357 0.30504,-0.28174 -1.63058,-1.88399 -0.13506,-0.1118 0.37683,0.10838 0.45383,0.26589 0.049,0.10033 -0.2229,-0.0143 -0.33434,-0.0215 0.0418,0.006 -0.27612,-0.18271 -0.28456,-0.0842 -0.006,0.0743 0.19752,0.19067 0.12306,0.1868 -0.1515,-0.008 -0.25813,-0.22498 -0.40802,-0.20161 -0.0992,0.0155 -0.18446,0.21889 -0.10623,0.28179 0.0746,0.06 0.13278,-0.13805 0.19918,-0.20707 0.27259,-0.0226 1.26553,-0.0386 1.58709,-0.2662 0.66746,-0.47248 0.0998,-0.66135 0.9623,-0.80336 1.14763,-0.18897 0.6295,0.44629 1.10413,-0.55795 -0.1001,-0.0575 -0.35329,-0.0699 -0.3003,-0.17243 0.0842,-0.16292 0.35978,-0.10755 0.50369,-0.22121 0.0584,-0.0461 0.0218,-0.14899 0.0515,-0.21726 0.066,-0.15197 0.13534,-0.30531 0.23343,-0.43884 0.63025,-0.85787 0.49753,-0.69914 1.225,-1.1417 -0.45646,0.26422 -0.85178,0.69137 -1.36938,0.79268 -0.80288,0.15714 1.07511,-1.14669 0.89559,-0.75135 -0.11341,0.24973 -0.4546,0.31359 -0.64463,0.51136 -0.0704,0.0733 0.17573,-0.11503 0.27645,-0.12817 0.14412,-0.0188 0.28973,0.0236 0.43459,0.0354 -0.0712,-0.90051 -0.11406,-0.0989 0.34585,-1.02263 0.0616,-0.12372 0.0154,-0.28574 0.0831,-0.40619 0.10406,-0.18498 0.34812,-0.28075 0.41635,-0.48172 0.0595,-0.17514 -0.0591,-0.36613 -0.0658,-0.55097 -0.005,-0.14901 0.0198,-0.29756 0.0297,-0.44635 0.0659,-0.16989 0.2437,-0.33334 0.19775,-0.50969 -0.0488,-0.18734 -0.55822,-0.24184 -0.43177,-0.38843 0.56212,-0.65167 1.27563,-1.22724 2.08285,-1.52565 1.09191,-0.40364 2.79955,0.16829 3.43392,1.14181 0.13477,0.20683 -0.30019,0.39199 -0.45028,0.58799 0.16996,0.16807 0.40638,0.28877 0.50988,0.50423 0.0395,0.0823 -0.14376,0.13177 -0.16129,0.22137 -0.008,0.0393 0.0911,0.0169 0.10752,0.0534 0.0558,0.12436 0.0648,0.26483 0.095,0.39776 0.22146,0.97587 0.17244,0.5443 0.18246,1.43993 -0.0224,0.11069 -0.0108,0.42988 -0.0672,0.33205 -0.10892,-0.18888 -0.0829,-0.42833 -0.11283,-0.64431 -0.0117,-0.0849 -0.095,-0.2774 -0.0119,-0.25675 0.17824,0.0443 0.34964,0.18777 0.41894,0.35785 0.36973,0.9074 0.1996,1.18827 0.0225,2.02675 -0.0671,0.98514 0.0496,-0.0275 -0.29102,1.17573 -0.17953,0.63421 10e-4,0.75436 -0.45121,1.35283 -0.71092,0.56963 -0.40117,0.24524 -0.93276,0.96984 -0.16473,0.14403 -0.32947,0.28807 -0.49421,0.4321 0.0398,0.0435 0.16738,0.0961 0.11944,0.13036 -0.334,0.23892 -0.74585,0.34876 -1.0939,0.56672 -0.95236,0.59638 -0.13143,0.50931 -1.52904,1.04798 -0.32903,0.12681 -0.69382,0.12639 -1.04072,0.18958 0.018,0.0938 0.14802,0.26435 0.0541,0.28134 -0.22569,0.0408 -0.43729,-0.17677 -0.66656,-0.1706 -0.92038,0.0247 -0.3949,0.61566 -1.5645,0.19448 -1.70948,-0.61561 -1.44806,-0.62973 -1.93018,-1.97785 -0.0643,-0.22726 -0.34728,-0.31243 -0.43105,-0.52194 -0.047,-0.11752 0.0764,-0.29558 -0.0185,-0.37923 -0.0685,-0.0603 -0.13556,0.24867 -0.20144,0.18548 -0.58477,-0.56085 -0.5287,-1.17807 -0.62527,-1.90963 0.0444,-0.22884 0.0887,-0.45769 0.13306,-0.68654 0.016,-0.0233 0.07,-0.0874 0.0479,-0.0699 -0.0981,0.0779 -0.2959,0.12872 -0.27811,0.2527 0.0513,0.35748 0.26802,0.67433 0.45545,0.98302 0.0734,0.12098 -0.0628,-0.27652 -0.10793,-0.41065 -0.0528,-0.15678 -0.12361,-0.30691 -0.18542,-0.46036 0.58128,-0.3972 -0.22297,-0.75999 -0.10129,-1.11159 0.0367,-0.10614 0.18013,0.1842 0.29143,0.16912 0.0794,-0.0107 0.17355,-0.22888 0.0938,-0.22131 -0.62345,0.0592 -0.29977,0.65493 -0.54243,-0.17632 0.0458,-0.20362 0.14761,-0.4024 0.13734,-0.61084 -0.0113,-0.22846 -0.15901,-0.43141 -0.19981,-0.65647 -0.0181,-0.0999 0.0139,-0.20258 0.0258,-0.30336 0.005,-0.0464 0.008,-0.0947 0.0264,-0.13752 0.21852,-0.50613 0.2598,-1.15313 0.68325,-1.50614 0.66838,-0.5572 1.59209,-0.7029 2.38814,-1.05434 1.64413,1.2668 -0.0889,0.16975 0.80801,0.33358 0.20621,0.0377 0.37475,0.20417 0.5813,0.23993 0.0454,0.008 0.0761,-0.1038 0.0399,-0.13238 -0.0539,-0.0426 -0.27429,0.007 -0.20593,0.001 0.31472,-0.0288 0.6304,-0.0459 0.9456,-0.0688 -0.50552,0.019 -1.02643,-0.0682 -1.51655,0.057 -0.43623,0.11148 -0.83569,0.36003 -1.19209,0.63517 -0.0642,0.0496 0.13309,0.14882 0.20999,0.12299 0.18245,-0.0613 0.31692,-0.22012 0.4606,-0.34818 0.69498,-0.61938 0.53921,-0.38551 0.73307,-1.11231 0.44379,-0.50727 1.0249,-0.94929 1.31191,-1.57999 0.0258,-0.0568 -0.0936,-0.11102 -0.0763,-0.17096 0.0203,-0.0703 0.12731,-0.0809 0.16699,-0.14236 0.15522,-0.2404 0.27428,-0.5023 0.41143,-0.75344 0.99381,-0.96701 -0.19025,-0.0297 -0.19972,0.0374 -0.0306,0.21638 0.35038,-0.51039 0.52997,-0.38589 0.17207,0.11927 -0.33031,0.26994 -0.4398,0.44839 -0.26755,0.79322 -0.0904,0.41804 -0.53034,1.12608 0.0534,0.11817 0.0653,0.443 0.16011,0.35451 1.22237,-1.14132 0.16177,-0.72806 0.62247,-1.84708 0.17493,-0.42489 0.64672,-0.70808 0.7519,-1.15537 0.0853,-0.36276 -0.15236,-0.72961 -0.22259,-1.09558 -0.0582,-0.30347 -0.10849,-0.60842 -0.16273,-0.91262 -0.64799,-0.0531 -0.32738,-0.80983 -0.65263,-1.07371 -0.13438,-0.10902 -0.64669,-0.23205 -0.49963,-0.14086 1.36784,0.84818 2.97846,1.34762 4.17739,2.42139 0.61893,0.55432 -1.57429,0.27736 -1.62791,0.27215 0.26997,0.35461 -0.60103,0.0177 -0.45389,-0.0181 0.70925,-0.17223 1.48327,-0.0923 2.15799,-0.37055 0.36953,-0.15241 -1.98262,-2.66219 -1.21016,0.43544 0.10147,0.4069 0.76083,-0.35298 1.14124,-0.52947 2.67223,1.92991 0.24489,-2.62853 0.1968,-1.97026 -0.0305,0.41768 0.39344,0.76258 0.43266,1.17954 0.012,0.1271 -0.17552,0.27062 -0.29922,0.23906 -0.11411,-0.0291 -0.04,-0.23644 -0.0962,-0.33995 -0.0173,-0.0319 -0.0697,-0.02 -0.10459,-0.0301 -0.0435,0.0802 -0.10584,0.15273 -0.13047,0.24057 -0.0669,0.23869 -0.0963,0.92223 -0.0238,1.0988 0.0282,0.0688 0.18434,-0.004 0.21047,-0.0736 0.0458,-0.12198 -0.12904,-0.29721 -0.0367,-0.38915 0.0758,-0.0755 0.19386,0.0907 0.2908,0.13612 0.0216,0.053 0.0248,0.11807 0.0648,0.15915 0.54832,0.5643 -0.29467,-0.52042 0.3442,-0.18394 0.0727,0.0383 -0.0574,0.19333 -0.13893,0.20384 -0.17327,0.0223 -0.34009,-0.0801 -0.51014,-0.12018 0.25287,-0.005 0.50583,-0.006 0.7586,-0.0143 0.0504,-0.002 0.19809,10e-4 0.15058,-0.0159 -0.24646,-0.0885 -0.50455,-0.26416 -0.75905,-0.20248 -0.83678,0.20282 -1.60138,0.63354 -2.39519,0.96701 -0.012,0.005 0.0164,0.0337 0.0279,0.0275 0.30305,-0.16443 0.59378,-0.35059 0.89067,-0.52588 -0.0325,-0.10091 -0.01,-0.3624 -0.0974,-0.30273 -0.25891,0.17634 -0.40457,0.48222 -0.56295,0.75249 -0.0424,0.0724 -0.0971,0.20788 -0.0248,0.25044 0.0747,0.044 0.16894,-0.066 0.22281,-0.13387 0.73184,-0.92192 0.65204,-0.61626 0.34268,-1.48847 0.0914,-0.22006 0.30506,-0.42388 0.2743,-0.66019 -0.0264,-0.20322 -0.24786,-0.33704 -0.4188,-0.45007 -0.05,-0.0331 -0.16458,0.002 -0.16905,0.0614 -0.006,0.0795 0.67048,-0.0407 0.23206,-0.29034 -0.0883,-0.0503 -0.062,0.19359 -0.093,0.29038 0.0518,0.004 0.11528,-0.0221 0.15527,0.0109 0.0561,0.0464 0.0637,0.1309 0.0956,0.19634 0.20863,0.34159 0.27639,0.82971 0.62591,1.02476 1.27584,0.712 2.98579,0.20852 3.42478,-1.34614 0.0546,-0.0784 0.20923,-0.31924 0.16381,-0.23519 -0.0972,0.17982 -0.186,0.36864 -0.31957,0.52337 -0.10376,0.12021 -0.31938,0.14045 -0.38011,0.28717 -0.0779,0.1881 0.0855,0.42221 0.008,0.61067 -0.58614,0.61124 -0.38842,0.26103 -0.61651,1.0371 0.1028,0.0895 0.17289,0.25389 0.3084,0.26847 0.0899,0.01 0.15264,-0.12798 0.16123,-0.21793 0.0421,-0.44057 0.18306,-0.93115 -0.0136,-1.32765 -0.20902,-0.42152 -1.17665,-1.35955 -1.08969,-0.89716 0.27649,1.47002 2.21603,2.68444 0.90919,1.8128 -0.32508,0.37371 0.56785,0.62128 0.49294,0.97883 -0.0333,0.15876 -0.31487,0.23091 -0.28953,0.39113 0.0309,0.19546 0.30685,0.25783 0.41803,0.42154 0.0224,0.033 -0.0422,0.0678 -0.0623,0.10227 -0.0309,0.0529 -0.0604,0.10664 -0.0906,0.15997 0.75391,2.25854 0.0938,-0.19994 0.19541,1.65395 0.005,0.0884 0.0991,0.14975 0.16715,0.20634 0.0164,0.0136 0.0615,-0.0372 0.0618,-0.016 0.0156,1.28445 -0.20913,0.23863 0.16053,1.4621 -0.37245,0.72929 -0.41925,0.40157 0.0195,1.00843 0.0709,0.0981 0.16833,0.18126 0.21426,0.29329 0.0258,0.063 -0.14718,-0.0701 -0.15063,-0.13809 -0.003,-0.0524 0.0894,-0.0581 0.13997,-0.0721 0.0246,-0.007 -0.039,0.033 -0.0585,0.0495 -0.55643,1.61119 -0.35507,2.39311 -2.01316,2.9083 -0.31239,0.0971 -1.2879,0.0964 -0.98123,-0.0175 0.66844,-0.24818 2.39015,-0.0206 0.55975,-0.20723 -0.17726,-0.0966 -0.36292,-0.40026 -0.53178,-0.28967 -0.27964,0.18316 -0.22108,0.64143 -0.41786,0.91165 -0.21094,0.28966 -0.58983,0.4349 -0.78266,0.73692 -0.12374,0.19381 -0.22359,0.4731 -0.12137,0.67907 0.0609,0.12277 0.27896,-0.0898 0.35844,-0.2014 0.31735,-0.4458 0.53592,-0.95423 0.80389,-1.43135 -2.37781,1.23473 -6.67974,2.10127 -2.45916,2.92623 0.15608,0.0305 -0.0842,-0.33997 -0.21944,-0.42367 -0.0969,-0.06 -0.21919,0.0657 -0.33196,0.0824 -0.66796,0.0993 -0.14272,-0.11547 -0.81413,0.25991 -0.0961,0.0117 -0.37459,0.079 -0.2883,0.0351 0.81492,-0.4145 1.84779,-0.50156 2.48825,-1.15404 0.41306,-0.42083 0.38144,-1.14595 0.34718,-1.73464 -0.0602,-1.03511 -0.6547,-2.06876 -1.6751,-2.42904 -0.19372,-0.0684 -0.36732,0.18411 -0.55098,0.27616 0.23877,0.0349 0.47753,0.0697 0.71629,0.10461 0.2807,0.0998 0.54972,0.24217 0.84209,0.29935 0.10112,0.0198 0.198,-0.0933 0.2996,-0.0761 0.14077,0.0238 0.24054,0.18371 0.3831,0.19155 0.0567,0.003 0.0523,-0.14123 0.004,-0.17029 -0.16893,-0.10064 -0.37758,-0.11001 -0.56638,-0.16501 -0.0937,0.0291 -0.33838,0.008 -0.28107,0.0872 0.0715,0.0993 0.24353,0.0274 0.36588,0.0307 0.17006,0.004 0.34157,-0.0293 0.5103,-0.008 0.044,0.006 -0.0893,0.0901 -0.11976,0.0578 -0.0926,-0.098 -0.12042,-0.24152 -0.17162,-0.36623 -0.0236,-0.0575 0.0591,0.10936 0.0886,0.16404 -0.10822,0.0194 -2.34525,0.36671 -1.09045,0.82957 0.39451,0.14553 0.69191,-0.47999 1.05738,-0.68794 0.47969,-0.27293 1.03178,-0.42347 1.47469,-0.75275 0.0992,-0.0737 -0.24983,-0.12245 -0.36327,-0.0735 -0.3643,0.15717 -0.66117,0.43876 -0.99176,0.65813 0.0662,-0.0674 0.2653,-0.26889 0.19851,-0.20213 -0.27472,0.2746 -0.64207,0.48157 -0.82231,0.82564 -0.1882,0.35928 -0.14363,0.79871 -0.23553,1.19375 -0.19068,0.81969 -0.77217,0.45096 0.8643,1.72055 0.39062,0.30304 0.93889,0.31009 1.40833,0.46513 -0.0515,-0.0319 -0.0962,-0.0792 -0.15457,-0.0956 -0.20684,-0.0579 -0.42863,-0.0561 -0.63218,-0.12465 -0.71608,-0.24118 -1.10623,-0.63261 -1.86788,-0.5193 -0.18602,0.0277 -0.33295,0.1763 -0.50693,0.24772 -0.10429,0.0428 -0.21663,0.0625 -0.32495,0.0938 -0.46042,0.006 -0.82433,-0.3212 -1.25558,-0.40974 -0.37683,-0.0774 -0.76904,-0.0392 -1.15083,-0.0864 -0.34882,-0.0431 -0.68988,-0.23074 -1.03825,-0.18406 -0.91347,0.12239 -0.38725,0.42917 -0.20729,0.57902 0.0695,0.25743 -0.44118,0.002 -0.33122,-0.008 0.23502,-0.0222 0.47197,0.0351 0.70358,0.0808 0.0772,0.0152 0.28232,0.0611 0.21392,0.10009 -0.32452,0.18489 -0.68585,0.31889 -1.0545,0.37881 -0.34892,0.0567 -0.70662,-0.0234 -1.05993,-0.0351 -1.09649,0.0317 1.12868,-0.0168 1.70863,-0.43337 0.62707,-0.45044 0.98445,-1.20945 1.31301,-1.90813 0.0797,-0.16959 -0.0538,-0.38559 -0.16261,-0.53819 -0.0349,-0.0489 -0.14158,0.0371 -0.15241,0.0963 -0.11076,0.60426 -0.13401,1.22133 -0.20101,1.832 -1.60126,-0.0885 -3.25394,0.14659 -4.80378,-0.26553 -1.07791,-0.28663 0.14664,-1.77504 0.16178,-2.00756 0.0354,-0.54412 -0.51314,-0.96655 -0.83591,-1.28667 -0.0767,-0.0401 -0.16007,-0.17105 -0.23001,-0.12014 -0.10983,0.08 -0.21413,0.27542 -0.13379,0.38499 0.28689,0.39127 0.65346,0.77433 1.10809,0.94379 0.5359,0.19976 1.61502,-0.45604 1.71238,0.10753 0.095,0.54969 -2.02063,0.59468 -1.66537,0.1646 0.88521,-1.07161 2.30421,-1.55512 3.45632,-2.33268 0.0127,-0.14915 -0.10005,-0.38946 0.0379,-0.44746 0.1236,-0.0519 0.0979,0.25564 0.0995,0.38969 0.0206,1.71965 -0.10146,-0.31387 -0.42208,1.24561 -0.0324,0.15739 0.0996,0.30716 0.12277,0.46616 0.0395,0.2704 0.043,0.54483 0.0646,0.81725 0.81035,0.32413 -0.25187,0.60864 -0.23166,0.44317 0.0214,-0.17481 0.33732,-0.5514 0.36895,-0.37816 0.0652,0.3571 -0.0908,0.7323 -0.24423,1.06127 -0.49719,1.06587 -1.17777,0.9927 -0.47494,1.00028 -0.0245,0.0852 -0.0864,0.34321 -0.0735,0.25553 0.0324,-0.22003 0.18547,-0.43808 0.13215,-0.65399 -0.0319,-0.12895 -0.32052,0.26487 -0.21005,0.33863 0.12632,0.0843 0.5143,-0.31404 0.40528,-0.20829 -0.19098,0.18526 -0.43823,0.30186 -0.65734,0.45279 -0.33166,0.40481 -0.66332,0.80961 -0.99498,1.21441 -0.49337,0.14035 -0.96749,0.43894 -1.48012,0.42103 -0.24797,-0.009 -0.35515,-0.34987 -0.55838,-0.49223 -0.0728,-0.051 -0.17304,-0.0434 -0.25508,-0.0776 -0.22895,-0.0954 -0.43465,-0.25425 -0.67623,-0.31039 -0.33045,-0.0768 -0.70515,0.057 -1.01441,-0.0825 -0.383,-0.17271 -0.64361,-0.5402 -0.96541,-0.81031 -0.41484,-0.55033 -0.89988,-1.04541 -1.31292,-1.59707 -0.07,-0.0935 -0.0771,-0.23263 -0.1658,-0.30854 -0.0694,-0.0594 -0.2274,0.0206 -0.26692,-0.0617 -0.13819,-0.28792 0.72283,-0.11966 -0.16101,-0.2044 0.0576,0.0198 0.18065,0.11972 0.17282,0.0593 -0.0898,-0.69216 -0.3835,-0.67898 -0.69632,-1.26594 -0.0203,-0.0381 0.0856,0.0104 0.12846,0.0157 0.0935,0.20232 0.48074,0.70487 0.28051,0.60696 -0.30265,-0.148 -0.42641,-0.52171 -0.63961,-0.78257 -0.0392,-0.31058 -0.0783,-0.62117 -0.11749,-0.93175 0.0836,0.0251 0.33231,0.10638 0.25078,0.0752 -0.14562,-0.0557 -0.37748,-0.008 -0.44337,-0.14884 -0.0834,-0.17884 0.0522,-0.39221 0.10199,-0.58315 0.0465,-0.1784 0.25504,-0.70231 0.33618,-0.91059 -0.45298,-0.3565 -0.39123,-0.13303 -0.36724,-0.46348 8.3e-4,-0.0114 0.009,-0.0332 -0.002,-0.0343 -0.069,-0.006 -0.23052,0.08 -0.20744,0.0146 0.59123,-1.67415 0.26365,-1.46252 1.11944,-1.78772 0.0689,-0.0743 0.50667,-0.5153 0.60179,-0.69641 0.0807,-0.15368 0.1167,-0.3281 0.19634,-0.48234 0.45538,-0.88204 0.49786,-0.66949 0.84458,-1.65601 0.0803,-0.22843 0.10931,-0.47175 0.16397,-0.70762 -0.10186,-0.037 -0.25026,-0.0178 -0.30556,-0.11097 -0.0657,-0.11065 -0.0455,-0.27014 0.0108,-0.38584 0.15987,-0.3287 0.37603,-0.63178 0.61759,-0.9061 0.2461,-0.27947 0.4883,-0.60543 0.83442,-0.7428 0.38315,-0.15206 0.83908,0.0393 1.23419,-0.0782 0.0886,-0.0263 -0.0625,-0.17401 -0.0938,-0.26102 -0.15468,0.0365 -0.31122,0.066 -0.46404,0.10959 -0.0171,0.005 0.0655,-0.004 0.0526,0.008 -0.16757,0.15756 -0.74101,0.5339 -0.53043,0.44137 0.35426,-0.15568 0.63443,-0.44545 0.97165,-0.63525 0.97382,-0.5481 2.23693,-0.98223 0.0149,-0.14247 0.22744,-0.0161 0.45488,-0.0322 0.68233,-0.0482 0.27252,-0.20957 0.48262,-0.55121 0.81756,-0.62873 0.2531,-0.0586 0.47624,0.21945 0.73101,0.27031 0.17177,0.0343 0.34997,-0.022 0.52512,-0.0195 0.0888,10e-4 0.12848,0.0612 0.0976,0.0181 -0.0182,-0.0592 -0.11119,-0.20274 -0.0546,-0.17764 0.69401,0.30761 1.41537,0.59195 2.02123,1.04934 0.19677,0.14856 0.19822,0.45221 0.27711,0.6858 0.0186,0.055 0.42474,1.49411 0.43191,1.58814 0.0215,0.28305 -0.0514,0.56542 -0.0772,0.84813 0.11933,0.45734 0.83149,0.47499 1.00836,0.88598 0.0931,0.21645 0.003,0.47184 0.0251,0.70646 0.0136,0.14636 0.0312,0.29522 0.0812,0.43344 0.0471,0.13018 0.12206,0.47045 0.20623,0.36053 0.17328,-0.22626 0.10716,-0.55981 0.16073,-0.83971 -0.0407,1.73029 -0.0277,-0.83359 0.16654,1.38124 0.0156,0.17789 -0.082,0.35432 -0.0636,0.53194 0.10021,0.96494 3.23913,-1.3714 -0.87416,1.90561 -0.54239,0.43211 -1.30965,0.45656 -1.96447,0.68484 -0.32053,-0.0713 -0.594,-0.1015 -0.88176,-0.24218 -0.0751,-0.0367 -0.12916,-0.12433 -0.21226,-0.1338 -0.18189,-0.0207 -0.31528,0.25943 -0.49665,0.23447 -0.40302,-0.0555 -0.77969,-0.2326 -1.16954,-0.34889 -0.1675,-0.14516 -0.28647,-0.38591 -0.5025,-0.43547 -0.14312,-0.0328 -0.24855,0.15642 -0.37283,0.23462 -0.22965,-0.068 -0.48318,-0.0814 -0.68895,-0.20401 -0.37253,-0.22191 -0.75311,-0.46733 -1.01643,-0.81184 -0.32511,-0.42535 -0.467,-0.96357 -0.70652,-1.44237 -0.0915,-0.18279 -0.19087,-0.36148 -0.28631,-0.54222 -0.0103,0.094 -0.0934,0.2111 -0.0308,0.28189 0.0491,0.0555 0.22868,-0.0133 0.20594,-0.0839 -0.0811,-0.2517 -0.5516,-0.4151 -0.44473,-0.657 0.48109,-1.08896 1.40943,-1.92234 2.03242,-2.93682 0.16042,-0.26122 -0.90043,0.8249 -0.28391,0.20084 -1.31811,1.24327 -0.0455,0.28056 -0.004,0.22019 0.18578,-0.26848 -0.32494,-0.2849 0.17345,-0.43631 0.0967,-0.0294 0.24003,0.10276 0.30242,0.0232 0.11961,-0.15251 0.0832,-0.3786 0.12479,-0.5679 10e-4,-10e-4 1.13485,-0.76101 -0.24167,-0.57787 -0.1623,0.0216 -0.16744,0.62592 -0.0867,0.48349 0.43696,-0.77057 0.67902,-3.12741 1.16654,-2.38779 5.03795,7.64316 -1.75485,3.68501 1.26085,5.32038 10e-4,0.0686 0.0645,0.17354 0.004,0.20574 -0.0567,0.0301 -0.10712,-0.0782 -0.13792,-0.13454 -0.0803,-0.14699 -0.0517,-0.37065 -0.18989,-0.46527 -0.0141,-0.01 -0.19476,0.32609 -0.33885,0.28648 -0.0626,-0.0172 -0.0824,-0.10032 -0.12354,-0.15047 -0.0351,0.002 -0.13947,0.0152 -0.10543,0.006 0.34633,-0.0914 0.69925,-0.15723 1.04414,-0.25392 0.21927,-0.0615 0.75318,-0.42146 0.64674,-0.22014 -0.46721,0.88367 -1.29632,0.63568 -2.05222,0.63956 -0.58289,0.003 -1.16573,0.012 -1.74859,0.018 -3.4486,-1.72319 -1.01163,-6.60025 2.43697,-4.87705 l 0,0 c -1.13956,-0.29064 -1.11783,-0.57584 -1.95271,-0.0777 -0.18513,0.11046 -0.70655,0.48176 -0.50592,0.40287 2.36237,-0.92892 -1.00292,-0.22853 2.17918,-1.0591 0.062,-0.0162 0.089,0.0921 0.13342,0.13816 0.0348,-0.018 0.0695,-0.036 0.10432,-0.054 0.022,-0.002 0.0457,0.003 0.0661,-0.006 0.0251,-0.0108 0.0389,-0.0591 0.0647,-0.0503 0.0525,0.018 0.0671,0.12612 0.12134,0.11408 0.79072,-0.17565 -0.54712,-0.30453 0.52087,-0.12978 0.36992,0.0372 1.00157,-0.24405 1.10976,0.11165 1.23352,4.05575 -0.70665,7.68003 1.8245,2.82525 0.12476,-0.2393 -0.28885,0.45828 -0.46501,0.66271 -0.94474,1.09635 0.32165,-0.92418 -0.836,1.12664 -0.002,0.72962 0.0585,1.03355 -0.20936,1.74968 -0.0399,0.1068 -0.63808,0.34004 -0.67677,0.37329 -0.39856,0.34262 2.18418,2.33278 -0.84995,1.32805 -1.80873,0.92555 -0.67841,1.45255 1.00416,-2.45478 0.0812,-0.18863 -0.18626,-0.36658 -0.2935,-0.54173 -0.0357,-0.0583 0.0528,0.126 0.0779,0.18955 0.0779,0.19748 0.15403,0.39567 0.23105,0.59351 -0.61546,0.0758 0.12906,0.0545 -0.70721,-0.77964 -0.16026,-0.15985 -0.4354,-0.14925 -0.61607,-0.28562 -0.0422,-0.0319 0.0917,-0.0927 0.14084,-0.0731 0.21164,0.0848 0.37458,0.26377 0.58031,0.36201 0.13596,0.0649 0.28998,0.0819 0.43497,0.1228 -0.1537,0.0275 -0.38131,-0.0517 -0.4611,0.0825 -0.0677,0.11388 0.26823,0.0587 0.39662,0.026 0.16344,-0.0416 0.28121,-0.2011 0.44523,-0.24036 0.16422,-0.0393 0.33893,-0.009 0.50642,0.0126 0.10958,0.014 0.21822,0.14012 0.31812,0.093 0.0682,-0.0322 -0.0305,-0.14768 -0.0458,-0.22152 -0.54002,0.27475 -1.1964,0.3911 -1.62006,0.82425 -0.41299,0.42225 -0.51371,1.06393 -0.75429,1.60335 -0.0111,0.025 0.0573,-0.0797 0.0628,-0.0529 0.0192,0.0942 -0.0194,0.19196 -0.0149,0.28798 0.0279,0.60554 0.007,0.4705 0.15969,0.89931 -0.0289,-0.33534 -0.0591,-0.67057 -0.0865,-1.00603 -0.003,-0.041 -0.0172,-0.0837 -0.006,-0.12337 0.0455,-0.16132 0.17469,-0.30422 0.17385,-0.47183 -4.5e-4,-0.0918 -0.15384,-0.12196 -0.17726,-0.21071 -0.0891,-0.33783 0.15472,-0.71821 -0.0692,-1.04589 -0.0564,-0.22757 -0.0497,-0.48107 -0.16935,-0.6827 -0.0847,-0.14277 -0.25579,-0.21819 -0.40656,-0.28767 -0.0565,-0.026 -0.13283,0.14021 -0.078,0.16944 1.51843,0.80905 2.36673,0.89226 1.37284,0.756 -0.10633,-0.0252 -0.21262,-0.0506 -0.31899,-0.0756 -0.0771,-0.0182 -0.22394,0.0248 -0.23149,-0.0541 -0.008,-0.0825 0.13145,-0.12153 0.21422,-0.12644 0.0919,-0.005 0.16802,0.11733 0.25815,0.0984 0.14912,-0.0313 0.24151,-0.2123 0.39221,-0.23475 0.11093,-0.0165 0.20685,0.0868 0.31028,0.13012 -0.50678,0.14639 -0.99841,0.36277 -1.52036,0.43918 -0.33713,0.0494 0.68291,-0.1556 0.95786,-0.35683 0.22004,-0.16103 0.49297,-0.94877 0.45687,-0.67851 -0.18138,1.35811 -0.28588,0.82349 -0.92325,1.08166 -0.25027,0.10137 -0.47916,0.2491 -0.71874,0.37366 -0.14048,-0.0381 -0.53556,-0.0238 -0.42144,-0.11418 0.17007,-0.13461 0.45992,0.0442 0.64747,-0.0647 0.17016,-0.0989 0.20977,-0.33311 0.31902,-0.4968 0.11669,-0.17482 0.2805,-0.32351 0.35872,-0.5186 0.0188,-0.0468 -0.10924,-0.0264 -0.15135,10e-4 -0.19503,0.12874 -0.35717,0.30145 -0.53575,0.45218 -0.20602,0.10499 -0.48527,0.12567 -0.61807,0.31497 -0.15366,0.21904 -0.0968,0.52645 -0.15535,0.78752 -0.0511,0.22795 -0.10728,0.45501 -0.17372,0.67899 -0.19665,0.66301 -0.48967,1.31827 -0.39034,2.03032 -0.62592,0.98331 -0.11433,0.22465 0.25991,-0.7379 0.0266,-0.0685 -0.11849,0.0957 -0.14868,0.16268 -0.0258,0.0572 -0.01,0.1253 -0.009,0.18806 0.002,0.38127 0.0894,0.14226 -0.24242,0.52836 0.0475,0.0888 0.095,0.17759 0.1425,0.26638 0.10098,0.19862 -0.0238,-0.0482 -0.0273,-0.0469 -0.0572,0.0215 -0.0818,0.10953 -0.0698,0.16943 0.0364,0.1818 0.0771,0.64846 0.20712,0.51624 0.13657,-0.13893 -0.10853,-0.37423 -0.16279,-0.56134 -0.0515,-0.23683 -0.31044,-0.89599 -0.15444,-0.7105 0.60293,0.71692 0.2612,0.78385 0.4251,1.3908 0.16115,0.59675 -0.0481,-0.76968 -0.14254,-0.41316 -0.0562,0.21239 -0.0131,0.43923 -0.0196,0.65884 0.11669,0.0563 0.25402,0.082 0.35007,0.16892 0.13022,0.11787 0.60906,1.01915 0.26919,1.14589 -0.11504,0.0429 0.0768,-0.33467 -0.0419,-0.36595 -0.13693,-0.0361 -0.21968,0.17872 -0.32952,0.26808 -0.0355,-0.0612 -0.0474,-0.22251 -0.10643,-0.18354 -0.0753,0.0498 -0.0926,0.21105 -0.024,0.26972 0.0956,0.0818 0.25807,0.0749 0.37611,0.0314 0.25622,-0.0945 0.47943,-0.26495 0.69875,-0.42764 0.0507,-0.0376 -0.12246,0.0304 -0.18368,0.0455 -0.39865,0.0767 -0.7973,0.15338 -1.19595,0.23007 -0.36316,0.30195 -0.79521,0.53643 -1.08948,0.90584 -0.0925,0.11618 -0.11694,0.51722 0.0131,0.44541 0.17587,-0.0971 0.17865,-0.36739 0.20603,-0.56643 0.007,-0.0507 -0.16492,0.11162 -0.1375,0.0684 0.99028,-1.56128 0.37496,-0.38389 0.57268,-0.76483 0.11078,-0.0961 0.38967,-0.42345 0.33232,-0.28844 -0.11828,0.27845 -0.40411,0.46317 -0.52444,0.74075 -0.1088,0.25097 0.0428,0.61015 -0.1467,0.8074 -0.1685,0.17537 0.01,-0.4904 0.0688,-0.72636 0.0763,-0.30562 0.35654,-0.24822 0.59443,-0.28518 -0.10186,0.11055 -0.50707,0.57245 -0.357,-0.35509 0.0349,-0.21557 0.45249,-0.24445 0.46397,-0.46252 0.0101,-0.19117 -0.3018,-0.24141 -0.41893,-0.39282 -0.20467,-0.26455 0.29245,-0.86843 -0.14855,-0.99238 1.17004,-0.8071 2.62046,-1.31274 3.51011,-2.4213 0.32484,-0.40478 -2.06954,-0.0939 -1.55697,-0.0124 0.65279,0.10377 1.36315,-0.15408 1.98134,0.0799 1.42463,0.53921 1.12625,0.84916 1.22046,1.73613 0.0168,0.15795 0.0552,0.31286 0.0827,0.46929 -0.0686,0.54993 -0.24107,1.23843 0.1154,1.75782 0.2585,0.37666 0.76416,0.5208 1.05952,0.86931 0.12275,0.14484 -0.0453,0.53828 0.14416,0.55103 0.18111,0.0122 -0.0221,-0.36237 -0.0331,-0.54356 -1.61176,-0.028 -3.22352,-0.056 -4.83528,-0.084 -0.0733,0.59577 -0.21096,1.18712 -0.21986,1.78732 -0.002,0.11865 0.21222,-0.17823 0.19775,-0.296 -0.0363,-0.29546 -0.4362,-0.54726 -0.3358,-0.82749 0.27697,-0.77313 0.72161,-1.54164 1.36664,-2.04994 2.09923,-1.65427 1.98753,0.10043 2.03079,-0.66591 -0.28355,0.0633 -0.58391,0.0748 -0.85065,0.18997 -0.27491,0.11869 -0.44983,0.45948 -0.74657,0.49961 -0.14489,0.0196 -0.005,-0.37668 0.13595,-0.41703 0.34313,-0.0985 0.71301,0.10244 1.06863,0.0711 0.29346,-0.0258 0.3444,-0.69133 0.79168,-0.39282 0.26584,0.12103 0.5385,0.22809 0.79753,0.36309 0.35685,0.18599 0.9386,0.64482 1.37117,0.67164 0.18014,0.0112 0.32101,-0.21249 0.50132,-0.20457 1.60044,0.0703 -0.0566,0.647 1.48547,-0.0797 0.27306,-0.006 0.54793,-0.0509 0.81919,-0.0189 0.0858,0.0101 1.22719,0.38606 1.30087,0.38237 0.11548,-0.006 0.14419,-0.19741 0.25253,-0.23782 0.38372,-0.1431 0.84897,0.0514 1.20907,-0.21821 0.65059,0.16522 1.40755,0.10274 1.95177,0.49566 1.09896,0.79345 1.2189,2.41578 0.73013,3.53824 -0.99884,2.29384 -0.85792,1.46427 -0.78689,1.02084 -0.40963,0.2507 -0.7853,0.56805 -1.22889,0.75208 -0.19365,0.0803 -0.78164,0.16197 -0.6287,0.0186 0.31792,-0.29807 0.81637,-0.31771 1.18891,-0.54381 0.28804,-0.17482 0.9139,-0.95557 0.77544,-0.6484 -0.20116,0.44627 -0.57922,0.81123 -0.97727,1.09616 -0.20381,0.14589 -0.49337,0.0888 -0.74006,0.13312 -0.26738,0.14745 -0.48762,0.30448 -0.80445,0.33419 -0.24965,0.0234 -0.5108,-0.0831 -0.75208,-0.0148 -0.11088,0.0314 -0.0929,0.23582 -0.19784,0.28346 -0.23174,0.10522 -0.3885,-1.14594 -0.76318,-0.0231 -0.30079,-0.0724 -0.59577,-0.1759 -0.90238,-0.21731 -0.15088,-0.0204 -0.30367,0.0226 -0.4555,0.0339 -0.008,-0.0195 -0.008,-0.0456 -0.0245,-0.0584 -0.07,-0.053 -0.25478,-0.0491 -0.22762,-0.13265 0.0539,-0.16571 0.2137,-0.32446 0.38561,-0.35299 0.094,-0.0156 0.0183,0.18963 0.0275,0.28445 -0.32933,0.0272 -0.67529,0.18846 -0.98798,0.0816 -1.00884,-0.34475 -2.1761,-1.436 -2.30387,-2.55996 -0.26708,-2.34964 1.21848,-2.29905 2.9782,-2.98962 0.0386,-0.0152 -0.0468,0.0686 -0.0702,0.10285 -0.0562,-0.077 -0.0853,-0.18469 -0.16871,-0.23089 -0.0351,-0.0194 -0.0899,0.0865 -0.0553,0.10676 0.0348,0.0204 0.0346,-0.0903 0.0746,-0.0954 0.10689,-0.0138 0.21485,0.0221 0.32026,0.0445 3.37395,0.71954 2.33086,0.1781 -1.93979,2.58924 0.15358,-0.56558 0.17808,-1.18335 0.46074,-1.69674 0.34306,-0.62309 0.74833,-0.37489 1.21938,-0.41014 0.20725,-0.0155 0.45401,0.0282 0.61486,-0.1034 0.2457,-0.20104 0.32519,-0.54566 0.50124,-0.80984 0.35204,-0.52827 0.72174,-1.04455 1.08261,-1.56683 0.25733,-1.23332 -0.15997,0.0241 1.60302,-1.15486 0.2215,-0.14813 -0.5513,0.019 -0.78613,0.14493 -1.36067,0.72966 -1.07733,1.20741 -1.52819,2.77938 -0.55153,-0.79395 0.34081,0.60545 -0.019,-0.52955 -0.0573,-0.18064 -0.49072,-0.29828 -0.36256,-0.43786 0.45324,-0.49369 0.64813,0.43184 0.95364,0.0126 0.0387,-0.0531 -0.0577,-0.11801 -0.0866,-0.17702 -0.0105,-0.4115 0.0747,-0.22964 -0.44447,-0.40661 -0.12191,-0.36527 0.28263,-1.00245 0.18381,-1.39895 -0.0236,-0.0947 -0.17478,-0.09 -0.25052,-0.15158 -0.0386,-0.0313 0.0912,0.0395 0.13687,0.0592 -0.16435,-0.11305 -0.40467,-0.16031 -0.49303,-0.33914 -0.2583,-0.52275 0.18389,-0.42548 0.20282,-0.79775 0.0186,-0.36669 -0.10557,-0.76661 -0.37052,-1.03065 -0.0377,-0.0376 -0.002,0.10651 -0.003,0.15976 -0.13891,-0.21916 -0.56722,-0.86883 -0.41672,-0.65747 0.44927,0.63096 1.02749,1.19704 1.31347,1.91688 0.18055,0.45446 -0.74805,-0.65973 -0.98416,-1.08797 -1.14635,-2.07921 -0.29975,-0.79577 0.25525,-1.97775 0.0947,-0.20165 -0.0247,-0.44486 -0.0371,-0.66729 0.11949,-0.21348 0.52912,-0.8997 0.52848,-1.11908 -6.1e-4,-0.21155 -0.21151,-0.37177 -0.26616,-0.57614 -0.0478,-0.17862 0.0129,-0.37518 -0.0359,-0.55352 -0.0131,-0.0479 -0.0543,0.0831 -0.0814,0.12463 0.0868,-0.18366 0.17364,-0.36732 0.26047,-0.55098 -0.0477,-0.20989 -0.27507,-0.45957 -0.14316,-0.62965 1.19832,-1.54509 2.07206,-2.24379 3.95553,-1.49796 1.02864,0.40734 1.11007,0.97414 1.37996,1.78537 0.0711,0.21377 0.13862,0.42872 0.20794,0.64308 0.13985,0.25873 0.32038,0.4993 0.41955,0.77618 0.0465,0.12969 0.008,0.27548 0.007,0.41323 -0.002,0.20032 -0.0139,0.40044 -0.0186,0.60072 -0.005,0.20123 0.0612,0.41538 -0.01,0.60378 -0.0674,0.17921 -0.42276,0.13288 -0.42436,0.38707 -0.11239,0.16965 -0.31586,0.30657 -0.33717,0.50894 -0.0219,0.20813 0.15918,0.38767 0.22168,0.58739 0.13028,0.41636 0.32273,1.10337 0.19734,1.54341 -0.12429,0.43618 -0.35108,0.8414 -0.59595,1.22316 -0.082,0.1278 -0.24275,0.18243 -0.36413,0.27364 0.0186,-0.0861 0.052,-0.34614 0.0556,-0.25818 0.007,0.18056 0.10889,0.44407 -0.044,0.54036 -0.79716,0.5019 -1.68177,0.88683 -2.59427,1.12075 -0.29091,0.0746 -0.58798,-0.13052 -0.87043,-0.23255 -0.0263,-0.01 -0.0294,-0.0982 -0.005,-0.0838 0.1484,0.0892 0.27044,0.21626 0.40566,0.32439 -3.17373,-1.43039 0.23364,0.24967 -1.25948,-0.76218 -0.0992,-0.0672 -0.26281,-0.0199 -0.34225,-0.10956 -0.16939,-0.19117 -0.17178,-0.50163 -0.35602,-0.67852 -0.12644,-0.12141 -0.33644,-0.0986 -0.50465,-0.14784 -0.099,-0.14007 -0.19802,-0.28015 -0.29703,-0.42023 -0.5986,-0.76311 -1.01267,-1.34768 -1.10515,-2.3472 -0.0195,-0.21053 0.11526,-0.42245 0.0745,-0.62991 -0.3283,-1.66931 -0.43851,-0.15455 -0.30339,-1.25098 -0.21435,-0.87702 -0.14572,-0.44577 -0.21823,-1.38844 -5.2e-4,-0.007 0.002,0.0132 0.004,0.0198 0.0543,0.28692 0.02,0.60611 0.163,0.86074 0.39279,0.69963 -1.50573,-4.99787 0.56905,-2.33883 0.35637,-0.28704 0.62034,-0.95051 1.06913,-0.86113 0.40011,0.0797 -0.53243,0.61896 -0.81693,0.91136 -0.083,0.0854 0.1024,-0.23919 0.21083,-0.28843 0.63613,-0.28882 1.31813,-0.46362 1.97421,-0.70366 0.0455,-0.0167 0.0829,-0.053 0.12954,-0.0661 0.0103,-0.003 0.0146,0.0158 0.022,0.0236 -0.0685,-0.0444 -0.12527,-0.14856 -0.20542,-0.1332 -0.30084,0.0577 -1.09688,0.14844 -0.85511,0.33651 1.28556,1.00005 2.86088,1.55769 4.29131,2.33654 -0.15268,0.0368 -0.33356,0.0146 -0.45806,0.11034 -0.32972,0.25353 -0.18486,0.91518 -0.54486,1.12252 -0.14194,0.32121 -0.36544,0.61768 -0.42583,0.96362 -0.14745,0.84471 0.21616,1.69287 0.45565,2.4648 0.097,0.31262 0.0678,0.70385 0.29926,0.93525 0.13286,0.13281 0.43508,-0.22015 0.55814,-0.0782 0.14666,0.16918 -0.03,0.4468 -0.0449,0.6702 -0.081,0.29427 -0.11737,0.60467 -0.24303,0.88283 -0.13198,0.29216 -0.34607,0.53977 -0.521,0.80842 -0.17114,0.26283 -0.43784,0.48258 -0.5172,0.78601 -0.0387,0.14783 0.4853,-0.36762 0.37905,-0.2578 -0.86949,0.89873 -0.84316,0.9114 -0.69217,0.47699 0.0492,-0.18842 0.26049,-0.40668 0.1475,-0.56528 -0.0871,-0.12225 -0.29233,0.11052 -0.39075,0.22386 -0.15662,0.18037 -0.18166,0.45494 -0.34777,0.62662 -0.0634,0.0655 -0.19153,-0.0258 -0.27304,0.015 -0.13858,0.0694 -0.8239,0.63353 -0.95464,0.73923 -0.69558,2.5684 0.21447,-0.0336 -0.58137,1.08759 -0.6959,0.98036 0.94059,-0.27718 -0.41168,1.20759 -1.43586,1.57655 -1.27038,1.18223 -3.10784,0.84723 0.19613,0.0477 0.45976,-0.0125 0.58838,0.14308 0.12114,0.14651 -0.37714,-0.0563 -0.5599,-0.10864 -0.1568,-0.0449 -0.2925,-0.16091 -0.45425,-0.18193 -0.0588,-0.008 0.16715,0.16127 0.11279,0.13756 -0.0808,-0.0352 -0.33488,-0.23905 -0.19725,-0.17607 0.73046,-0.24953 1.59211,-0.26207 2.19137,-0.74861 0.4081,-0.33133 0.32547,-1.00274 0.55074,-1.47769 0.0605,-0.12748 0.0891,0.73941 -0.22774,0.35678 0.0765,-0.62557 0.69967,-0.14237 -0.0816,-0.55378 -0.29097,0.28041 0.0503,-0.1042 0.25121,0.72236 0.0332,0.13676 -0.10121,0.27335 -0.0863,0.4133 0.0297,0.27893 0.15948,0.53851 0.21684,0.81308 0.008,0.0387 -0.0489,0.14592 -0.0227,0.11634 0.0554,-0.0625 0.0775,-0.14798 0.1162,-0.22197 -0.14145,0.0171 -0.29549,-0.009 -0.42434,0.0513 -0.0968,0.0457 0.28871,-0.10472 0.32126,-0.003 0.13987,0.43842 0.11646,0.91544 0.11674,1.37563 10e-5,0.16576 -0.10274,0.31839 -0.11562,0.48365 -0.005,0.0615 0.0247,0.22069 0.0644,0.17351 0.0979,-0.11618 0.101,-0.28653 0.1515,-0.42979 -0.0301,-0.0458 -0.87338,-1.06434 -0.49152,-1.34872 0.14541,-0.10829 0.38776,0.18247 0.4051,0.36294 0.0177,0.18372 -0.34111,0.26256 -0.32728,0.4466 0.0213,0.28344 0.81782,9.3e-4 0.73281,0.43602 -0.74547,-0.49698 -0.39734,-0.34877 -1.64027,-0.55486 -0.0592,-0.01 -0.20741,-0.0329 -0.17881,0.0198 0.0403,0.0742 0.17291,0.1427 0.23742,0.0882 0.0941,-0.0795 -0.0385,-0.34997 0.0843,-0.35981 0.2401,-0.0192 0.43814,0.20027 0.65721,0.3004 -0.0424,0.0763 -0.17637,0.25911 -0.0901,0.24597 0.15454,-0.0235 0.41697,0.0422 0.45611,-0.10911 0.0405,-0.15672 -0.38904,-0.19549 -0.33767,-0.34899 0.0268,-0.0801 0.64565,-0.58331 0.86654,-0.76492 0.65748,-0.17994 -0.27752,0.15597 0.11116,-0.43865 0.0552,-0.0845 0.17149,0.12206 0.27176,0.13344 0.046,0.005 -0.1265,-0.0987 -0.0822,-0.11192 0.22124,-0.0661 0.66462,0.45082 -0.11603,-0.27181 0.45809,0.26224 0.18809,0.0183 0.36692,0.70105 0.007,0.0253 0.0333,-0.0516 0.022,-0.0753 -0.13568,-0.28523 -0.35946,-0.53046 -0.45357,-0.83198 -0.13459,-0.43119 -0.13465,-0.89368 -0.2233,-1.33661 -0.0206,-0.10306 -0.0692,-0.19849 -0.1038,-0.29773 0.0538,0.0663 0.12723,0.12069 0.16128,0.19899 0.0532,0.12239 0.0219,0.27705 0.0944,0.38909 0.0242,0.0373 0.11806,-0.0461 0.101,-0.0872 -0.0618,-0.14872 -0.16843,-0.2835 -0.2959,-0.38193 -0.11679,-0.0902 -0.32631,-0.28474 -0.41114,-0.16401 -0.0827,0.11771 0.22417,0.18039 0.33625,0.27059 -0.0489,-0.62874 0.046,0.76546 0.99971,1.13404 0.55336,0.21386 1.24321,0.13367 1.77507,-0.12916 0.0629,-0.0311 2.77447,-2.05672 1.32766,-1.61194 -0.17438,0.34556 -0.46773,0.87526 -0.55404,1.25737 -0.10696,0.47356 0.0282,0.84956 -0.12252,1.32079 -0.095,0.29683 -0.49628,0.43556 -0.55992,0.74873 -0.0277,0.28342 -0.0861,0.5655 -0.0832,0.85027 0.002,0.15423 0.14671,0.3068 0.0963,0.45258 -0.11866,0.34335 -0.40175,0.60664 -0.57311,0.92697 -0.0259,0.0484 0.98221,-0.98796 0.48154,-0.64574 -0.49485,0.33823 -0.89768,0.79453 -1.34652,1.1918 0.0162,-0.0343 0.45351,-0.84718 0.27234,-0.93078 -0.16582,-0.0765 -0.36413,0.15503 -0.44591,0.31832 -0.14809,0.29566 -0.008,0.70222 -0.20018,0.97163 -0.26336,0.37003 -1.47376,-1.07413 -1.22595,0.59463 -1.39242,0.55785 -0.11458,-0.0528 -1.4934,0.97331 -0.13528,0.10066 -0.30802,0.13853 -0.45467,0.22176 -0.15182,0.0862 -0.28095,0.21145 -0.43903,0.2855 -0.18012,0.0844 -0.41242,0.0607 -0.56706,0.18574 -0.1249,0.10104 -0.13529,0.29143 -0.20294,0.43715 -1.87178,0.7288 0.86091,-0.45435 -1.30431,1.04178 -0.23649,0.16341 -0.55348,0.15561 -0.82882,0.23816 -0.0877,0.0263 -0.16867,0.0849 -0.26021,0.0884 -0.34421,0.013 -0.68015,-0.17688 -1.03081,-0.0727 -0.22989,-0.0949 -0.44112,-0.29253 -0.68968,-0.28453 -0.11084,0.004 0.23433,0.35897 0.13904,0.30224 -1.01725,-0.60555 -1.44749,-1.10272 -1.91945,-2.18858 -0.0284,-0.0653 0.10377,-0.10377 0.1288,-0.17043 0.0136,-0.0363 -0.0611,0.0477 -0.0917,0.0715 -0.61006,-1.05231 -0.0826,0.0741 -0.26572,-1.45601 -0.0149,-0.12487 -0.14353,-0.20924 -0.18915,-0.32644 -0.0638,-0.1638 -0.0452,-0.35904 -0.13621,-0.50942 -0.0818,-0.13519 -0.33461,-0.1532 -0.3593,-0.30929 -0.0344,-0.21759 0.14092,-0.41745 0.21138,-0.62618 -0.0683,-0.17983 -0.1528,-0.35432 -0.20487,-0.5395 -0.12592,-0.44783 -0.0314,-0.5661 -0.23732,-0.9951 -0.0485,-0.10109 -0.16921,-0.15746 -0.21224,-0.26101 -0.37073,-0.89223 0.3021,-0.0515 -0.44627,-0.83447 0.0753,-0.47558 0.0324,-0.11264 0.004,-0.97137 -0.008,-0.24484 0.0204,-0.49285 -0.0186,-0.73469 -0.19638,-1.21585 -0.10795,0.70955 -0.44693,-0.70408 -0.0417,-0.17376 0.0513,-0.35366 0.077,-0.53048 0.0575,-0.12831 0.22619,-0.25502 0.17242,-0.38493 -0.0397,-0.0959 -0.34343,0.10328 -0.26222,0.16793 0.33877,0.26969 0.85887,-0.0205 0.99172,-0.34664 0.38162,-0.93672 -0.12475,-0.9658 -0.78398,-1.49675 -0.73813,-3.32156 3.95927,-4.36542 4.6974,-1.04386 z"
         inkscape:connector-curvature="0" />
      <path
         style="fill:#795548;fill-opacity:1;stroke:none;stroke-width:5.4000001;stroke-miterlimit:4;stroke-dasharray:none;stroke-opacity:1"
         id="path4185"
         d="m 430.98606,515.469 c 0.0652,0.21683 0.039,0.56096 0.35712,0.56321 0.12741,9.1e-4 0.2571,-0.14666 0.37141,-0.0904 0.12304,0.0606 0.16991,0.22998 0.18818,0.36591 0.13397,0.99653 0.45071,2.01664 0.26496,3.00483 -0.0746,0.39685 -0.64463,0.48649 -0.96694,0.72973 0.86009,-1.03625 0.53537,-0.46801 0.9892,-1.68788 0.0509,-0.13675 0.15129,-0.55603 0.15288,-0.41013 0.006,0.56262 0.24627,1.27217 -0.13899,1.68224 -1.42324,1.51491 -2.06678,1.23913 -3.42796,1.01695 1.59643,0.22139 0.90531,0.36058 2.53077,-0.62606 0.17905,-0.10868 -0.3593,0.22783 -0.56175,0.28156 -0.0843,0.0224 0.13055,-0.11634 0.18762,-0.18225 0.0231,-0.0267 -0.062,0.0364 -0.0847,0.0634 -0.25367,0.30112 -0.49503,0.6124 -0.74254,0.91861 0.16119,-0.0877 0.64043,-0.35839 0.48356,-0.26317 -0.60315,0.36613 -1.52196,1.07543 -2.35134,0.854 -0.0736,-0.0196 1.34133,-0.52601 0.42651,-0.24723 -0.67135,-0.25267 -0.8842,0.49035 -1.36601,0.62849 -0.39706,0.11384 -0.83294,0.0227 -1.23267,0.12683 -0.27922,0.0727 -0.48531,0.34979 -0.77031,0.39484 -0.37833,0.0598 -0.76263,-0.0778 -1.14539,-0.092 -0.32596,-0.0121 -0.65232,0.009 -0.97848,0.0131 -1.06832,-1.03557 -0.833,0.55114 -0.56653,0.56569 0.32547,0.0178 0.93305,-0.81878 0.83573,-0.50769 -0.1074,0.34332 -0.55058,0.47602 -0.87466,0.63215 -0.84561,0.40738 -1.01892,0.30904 -1.82603,0.25234 -0.16373,-7.4e-4 -0.32752,0.002 -0.49119,-0.002 -0.23872,-0.007 -0.51175,0.0927 -0.71573,-0.0314 -0.34029,-0.20717 -0.51975,-0.6046 -0.79775,-0.88995 -0.32237,-0.33089 -0.61574,-0.63737 -1.10242,-0.68941 -0.13403,-0.0143 -0.26077,0.0684 -0.39115,0.1026 -0.51844,-0.51536 -0.2611,0.43457 -0.12735,0.39692 0.79747,-0.2245 1.56347,-0.62503 2.20155,-1.15344 1.52326,-1.26145 -0.4655,-3.22939 -1.14705,-4.13011 -0.13025,-0.17213 -0.42596,-0.0702 -0.63894,-0.10527 0.0852,0.12988 0.11548,0.3226 0.2556,0.38962 0.0655,0.0313 0.43167,-0.2361 0.58293,-0.24918 0.11714,-0.0101 0.23112,0.0435 0.34622,0.0675 1.20884,0.25235 0.67128,0.0983 1.82653,0.54661 0.0919,0.12927 0.144,0.29928 0.27557,0.38781 0.0631,0.0424 0.16374,-0.10216 0.22186,-0.0531 0.93232,0.78663 0.93064,1.01376 1.26589,2.11493 0.17676,0.58058 0.11963,0.45676 -0.0218,0.25285 0.5753,0.13742 -0.0911,-0.0969 0.17594,0.29614 0.0621,0.0914 0.22974,0.0556 0.30015,0.14072 0.0665,0.0804 0.0229,0.21162 0.0687,0.30541 0.10853,0.22255 0.49823,0.74804 0.65102,0.96046 -0.15098,0.008 -0.37958,-0.10893 -0.45295,0.0232 -0.0625,0.11251 0.24022,0.11422 0.32109,0.21431 0.29149,0.36076 0.64182,1.42057 0.21959,1.75068 -3.86168,3.0191 -3.34069,2.87025 -4.97949,0.7483 0.0497,0.11369 0.22047,0.44245 0.14898,0.34106 -0.11285,-0.16003 -0.15671,-0.36298 -0.27465,-0.51929 -0.16089,-0.21321 -0.4452,-0.335 -0.55403,-0.57893 -0.16163,-0.36227 -0.16239,-0.77687 -0.22559,-1.1685 -0.15406,-0.95461 -0.21032,-1.61337 -0.30822,-2.55738 0.19527,-1.49673 0.28989,-0.45449 -0.41156,-1.6136 -0.14038,-0.23195 -0.58803,-0.69401 -0.32211,-0.74687 1.74279,-0.34647 3.58547,0.11515 5.32492,-0.24769 0.31454,-0.0656 -0.32834,-0.6134 -0.62684,-0.73233 -0.85803,-0.34184 -1.80407,-0.39702 -2.7061,-0.59554 -0.0543,0.15853 -0.25902,0.33825 -0.163,0.4756 0.0802,0.11468 0.26474,-0.0914 0.39377,-0.14553 0.14922,-0.0626 0.29355,-0.13631 0.44033,-0.20447 0.17651,-0.16592 0.30754,-0.40081 0.52955,-0.49777 0.22363,-0.0977 0.48688,-0.034 0.73022,-0.0524 0.31751,-0.024 0.63487,-0.0499 0.9523,-0.0748 0.73443,-0.0279 1.37536,0.40733 2.09085,0.48403 0.084,0.009 -0.14313,-0.30335 -0.12408,-0.22103 0.13509,0.58361 0.65145,0.90172 1.05043,1.31919 -0.11678,-0.19217 -0.1919,-0.41695 -0.35036,-0.57652 -0.0775,-0.078 -0.20958,-0.0669 -0.31601,-0.0945 -0.33017,-0.0856 -0.66389,-0.15733 -0.9935,-0.24513 -0.006,-0.002 8.4e-4,-0.0204 0.007,-0.0178 0.23046,0.10563 0.44092,0.25964 0.6833,0.33395 0.25172,0.0772 0.52096,0.0767 0.78144,0.11508 0.50402,-0.22214 0.88844,0.35879 1.35048,0.32676 0.0875,-0.006 0.1505,-0.1755 0.0966,-0.24467 -0.14227,-0.18262 -0.35225,-0.40528 -0.58222,-0.37863 -1.80796,0.20955 -1.12272,1.13848 -1.59646,0.37453 0.24058,0.0291 0.49995,0.18495 0.72174,0.0873 0.1219,-0.0537 -0.10859,-0.30671 -0.0129,-0.39939 0.70258,-0.68071 2.35964,-0.87038 3.16912,-0.3194 -0.1466,0.003 -0.2932,0.006 -0.43981,0.009 -0.30574,-0.0766 -0.60235,-0.21586 -0.91724,-0.22976 -0.11238,-0.005 0.16147,0.17521 0.27091,0.20123 0.48515,0.40287 0.17145,-0.11663 0.27005,-0.14074 0.16259,-0.0398 0.33211,-0.042 0.49816,-0.063 0.19759,-0.0409 0.41506,-0.027 0.59276,-0.12257 0.63558,-0.34178 -0.15295,-0.45536 0.74548,-0.66525 0.43154,-0.10082 0.88287,-0.0841 1.32578,-0.099 0.15921,-0.005 0.63537,0.0288 0.47636,0.0384 -0.38824,0.0235 -0.7779,0.002 -1.16685,0.003 -0.42568,0.31281 -1.83696,1.30029 -2.05873,1.70311 -0.15455,0.28075 0.0191,0.64067 0.0286,0.96101 -0.64679,-3.68282 4.5615,-4.59753 5.2083,-0.91471 l 0,0 c -0.0391,0.4209 0.0716,0.88458 -0.1174,1.2627 -0.30254,0.60529 -1.75577,1.78099 -2.27516,2.22936 -0.51038,0.0187 -1.02123,0.0272 -1.53113,0.0561 -0.0728,0.004 0.14617,0.031 0.21795,0.0183 0.37814,-0.0672 0.74797,-0.17491 1.12325,-0.25655 0.0525,-0.0114 0.20517,0.006 0.1595,-0.0225 -0.11565,-0.0716 -0.2541,-0.12689 -0.38993,-0.12006 -0.0967,0.005 -0.16505,0.10139 -0.24757,0.15209 -0.50095,0.30075 -0.42983,0.2732 -1.08822,0.57194 -0.12289,0.0558 -0.28279,0.0513 -0.37674,0.14821 -0.11366,0.11719 -0.0465,0.39234 -0.2004,0.44688 -1.18623,0.42048 -1.23696,0.24692 -2.01961,-0.19293 -0.25148,0.0415 -0.0609,0.004 0.56298,0.14997 0.26999,-0.0185 0.51764,-0.15811 0.77647,-0.23716 0.17989,-0.0941 0.33821,-0.25728 0.53968,-0.28223 0.13466,-0.0167 -0.25389,0.36947 -0.33825,0.22647 -0.0956,0.13816 -0.13334,0.34619 -0.28686,0.41447 -1.17178,0.52117 -1.65295,0.72265 -2.68789,0.29409 -0.16685,-0.0691 -0.32127,-0.17927 -0.44148,-0.31404 -0.0984,-0.11029 0.0402,-0.33916 -0.1473,-0.4182 -0.37421,0.0222 -0.35,0.002 -0.70516,0.0951 -0.26829,0.0705 -0.52555,0.2584 -0.80102,0.22571 -0.51279,-0.0608 -1.00641,-0.26336 -1.46798,-0.49489 -0.41075,-0.20605 -0.3986,-0.9441 -0.93711,-1.01114 0.28203,0.17568 0.61784,0.28557 0.84608,0.52705 0.5128,0.54257 -1.08607,0.0719 -0.53138,0.12023 0.35235,0.0307 0.70471,0.0923 1.0427,0.19658 0.0386,0.0119 -0.01,0.0803 -0.0148,0.1204 0.0751,-0.041 0.15028,-0.0821 0.22542,-0.1231 0.43313,-0.14002 0.34436,-0.0305 0.54483,-0.28313 0.0175,-0.022 -0.0411,0.0389 -0.0577,0.0616 -0.0513,0.0698 -0.10052,0.14129 -0.14564,0.21524 -0.33816,0.55421 0.0403,0.19264 -0.95085,0.64592 -0.92363,-0.1085 -1.90102,0.003 -2.77087,-0.32549 -0.38218,-0.14453 -1.10118,-0.85274 -0.71768,-0.99375 1.51093,-0.55556 3.22338,-0.19613 4.80266,-0.50827 0.14158,-0.028 0.0358,-0.3757 -0.1012,-0.42099 -0.17844,-0.059 -0.39872,0.0727 -0.52106,0.21533 -0.13305,0.15517 -0.11269,0.39298 -0.16904,0.58947 0.0378,0.20355 0.0359,0.41867 0.11332,0.61066 0.0239,0.0593 0.12415,0.0448 0.16934,0.09 0.0673,0.0673 0.0732,0.19489 0.15823,0.23774 0.11972,0.0604 0.27187,0.004 0.39986,0.0436 0.3762,0.11735 0.35814,1.00655 0.84723,0.82456 -1.62736,-1.4913 -1.13745,-1.45358 -4.5938,1.32286 -0.27156,0.21814 0.0145,0.70668 0.1229,1.03771 0.0302,0.0921 0.19787,0.20558 0.2597,0.13092 0.0623,-0.0753 -0.13418,-0.14789 -0.17047,-0.23867 -0.10414,-0.26051 -0.16443,-0.53648 -0.24665,-0.80471 -0.0956,0.025 -0.30252,-0.0225 -0.28682,0.0751 0.0177,0.10983 0.22133,0.16526 0.31611,0.10703 0.0895,-0.055 0.0374,-0.21054 0.0213,-0.3143 -0.0166,-0.10688 -0.068,-0.20625 -0.11716,-0.30262 -0.22551,-0.44235 -0.20445,-0.33094 -0.68198,-0.61278 -0.0223,-0.24061 -0.0267,-0.48356 -0.067,-0.72182 -0.0156,-0.0925 -0.18804,-0.29387 -0.0994,-0.26317 0.40468,0.14022 0.76135,0.84152 0.83411,1.16893 0.0379,0.17075 -0.23669,-0.3422 -0.34431,-0.396 1.64083,0.64498 -0.80843,-0.19402 0.96421,-0.0312 0.1124,0.0103 -0.13359,0.20695 -0.2426,0.2362 -0.0842,0.0226 -0.15428,-0.0847 -0.23848,-0.10712 -0.44446,-0.11851 -0.35296,-0.0297 -0.77684,0.27486 -0.33156,-0.0596 -0.76486,0.0675 -0.99467,-0.17882 -0.14123,-0.15136 -2.98636,-3.08683 -1.55836,-4.30179 0.63289,-0.53847 2.11111,-1.44759 3.06135,-0.8055 0.17309,0.11697 0.282,0.3083 0.423,0.46245 0.27598,0.12284 0.55831,0.23231 0.82794,0.36852 0.23896,0.12071 0.43629,0.33532 0.69577,0.40121 0.30863,0.0784 0.638,0.0471 0.95509,0.018 0.0521,-0.005 0.0808,-0.0697 0.10634,-0.11533 0.0141,-0.0252 -0.003,-0.11373 0.007,-0.0865 0.0375,0.10255 0.052,0.21209 0.0779,0.31813 -0.21739,-0.43128 -0.0409,-0.31205 -0.44332,-0.0442 -0.13173,0.0877 -0.56171,0.28828 -0.41299,0.23418 0.48115,-0.17503 0.91381,-0.49185 1.41457,-0.59852 0.77883,-0.16591 1.01718,0.0513 1.59127,0.35321 0.18972,0.0224 0.38106,0.0339 0.56916,0.0673 0.20376,0.0362 0.3996,0.16914 0.60462,0.14098 0.22904,-0.0315 0.43629,-0.16995 0.62081,-0.30925 0.0749,-0.0566 0.0609,-0.18341 0.12391,-0.25299 0.35683,-0.39377 0.37247,-0.33601 0.82167,-0.44672 1.82639,-0.74919 -0.67912,0.40142 1.3371,-1.07744 0.3876,-0.28429 0.92772,-0.3248 1.29442,-0.63558 0.25156,-0.21321 -0.63052,0.19767 -0.93291,0.3292 -0.37909,0.16488 -0.69426,0.54491 -1.10744,0.55826 -0.2423,0.008 0.32605,-0.35887 0.48908,-0.5383 -0.20595,0.27525 -0.44836,0.52666 -0.61783,0.82575 -0.047,0.083 0.17243,-0.089 0.23908,-0.1573 0.15873,-0.16251 0.30374,-0.33979 0.43055,-0.52827 0.0284,-0.0422 -0.17269,0.10737 -0.12942,0.0807 1.91365,-1.17947 0.93263,-0.9195 2.86236,-1.00683 -1.22914,-0.48249 -1.18715,-0.67151 -2.68901,1.27202 -0.28518,0.36904 -0.0125,0.95426 -0.18754,1.38655 -0.09,0.22225 -0.13713,-0.48037 -0.0847,-0.71436 0.23258,-1.03798 0.6344,-1.2775 1.3177,-2.01321 -1.38861,1.20281 -1.01997,0.54791 -0.68111,3.55279 0.01,0.0864 0.26159,0.0472 0.25776,-0.0397 -0.008,-0.19156 -0.21535,-0.32165 -0.28165,-0.50157 -0.50418,-1.36835 0.16776,-0.41184 -0.73646,-1.45755 -1.12676,-3.0047 3.12252,-4.59818 4.24928,-1.59348 z"
         inkscape:connector-curvature="0" />
      <path
         style="fill:#795548;fill-opacity:1;stroke:none;stroke-width:5.4000001;stroke-miterlimit:4;stroke-dasharray:none;stroke-opacity:1"
         id="path4187"
         d="m 423.05512,530.86393 c -0.36024,0.0291 -0.28916,-0.0186 -0.64229,0.24581 -0.0236,0.0177 -0.0684,0.0786 -0.039,0.0792 0.1309,0.003 0.49626,-0.1425 0.38621,-0.0716 -0.9921,0.63935 -0.86038,0.57468 -1.6309,0.61722 0.46816,0.54318 0.41952,0.63214 0.94827,-1.06891 0.0619,-0.1991 -0.21726,-0.40406 -0.16026,-0.60462 0.0466,-0.16392 0.17231,0.3028 0.19817,0.47123 0.14396,0.93751 0.0743,0.83932 -0.28529,1.56384 -0.0703,0.15891 0.16187,-0.20572 0.19439,-0.32882 0.0385,-0.14576 0.0313,-0.30313 0.009,-0.45219 -0.0191,-0.12637 0.0203,0.26139 -0.0192,0.38291 -0.18648,0.57291 -0.51695,0.58646 -0.12637,0.51969 0.0385,-0.066 0.14964,-0.26647 0.11547,-0.1981 -0.0931,0.18639 -0.19696,0.36727 -0.29253,0.55242 -0.005,0.009 -0.0127,0.0396 -0.008,0.0302 0.0883,-0.18597 0.21399,-0.35958 0.2598,-0.56027 0.0934,-0.40923 -0.0588,-0.25205 -0.12307,-0.19592 0.0546,0.26596 0.0518,0.091 -0.0525,0.38404 -0.0222,0.0624 -0.0456,0.25583 -0.0561,0.19048 -0.0231,-0.14329 0.0895,-0.30953 0.0167,-0.43509 -0.3469,-0.59825 -1.00796,-0.72272 -0.41998,-0.57732 0.27956,0.26217 0.5842,0.49994 0.83868,0.78651 0.0505,0.0569 0.0431,0.14624 0.0562,0.22118 0.072,0.41313 0.0666,0.29773 3.5e-4,0.64149 -0.27463,1.88654 -2.94259,1.49816 -2.66796,-0.38838 l 0,0 c -0.0219,0.0494 -0.0638,0.0942 -0.0656,0.14815 -0.003,0.0961 0.022,0.19228 0.0514,0.28381 0.11225,0.34942 1.58382,-0.0292 0.80225,0.75408 0.39101,0.16956 -0.47846,-0.20486 -0.86555,-0.75305 -0.1366,-0.19345 -0.0948,-0.46406 -0.14215,-0.69608 0.0269,-0.0522 0.10027,-0.10106 0.0809,-0.15647 -0.044,-0.12572 -0.25195,-0.11616 -0.34289,-0.12347 0.27929,-0.2635 -0.0155,0.0782 0.0724,-0.46485 0.0375,-0.23178 0.13083,-0.45162 0.21575,-0.67052 0.006,-0.0157 0.0509,-0.0289 0.0491,-0.0122 -0.0186,0.17306 -0.001,0.37057 -0.10268,0.51194 -0.078,0.10869 0.0152,-0.26717 0.0229,-0.40075 0.0939,-0.0638 0.33,-0.2939 0.28157,-0.19129 -0.0717,0.15181 -0.31184,0.19258 -0.35831,0.35389 -0.0272,0.0944 0.14556,0.30987 0.19201,0.22336 0.0966,-0.17994 -0.0215,-0.41189 0.0169,-0.61249 0.0732,-0.38258 0.11805,-0.40652 0.29682,-0.60769 -0.26539,0.60756 -0.28599,0.45073 -0.11651,1.26599 0.0254,0.1222 0.18248,0.46234 0.15607,0.34036 -0.0507,-0.2343 -0.28113,-0.44725 -0.22992,-0.68144 0.37886,-1.73237 0.29896,-1.56917 1.23743,-1.38312 0.0905,-0.0246 0.34148,-0.13623 0.27157,-0.0737 -0.16341,0.14615 -0.48303,0.53955 -0.56521,0.3363 -0.0837,-0.20691 0.35336,-0.27396 0.54254,-0.39237 0.16089,-0.1007 0.32548,-0.20136 0.50492,-0.26323 1.07168,-0.36952 -0.10543,0.33344 1.01932,-0.44326 1.34564,-0.33641 1.8214,1.56662 0.47576,1.90303 z"
         inkscape:connector-curvature="0" />
    </g>
  </g>
</svg>
